<svg fill="none" height="34" viewBox="0 0 76 34" width="76" xmlns="http://www.w3.org/2000/svg"><g clip-rule="evenodd" fill="#fff" fill-rule="evenodd"><path d="m4.53979 29.0335c0 .6313-.04653 1.2009-.13877 1.7098-.09264.5084-.26481.9469-.51702 1.3152-.25221.3682-.59276.6531-1.02145.8549-.42879.2014-.97973.3025-1.65202.3025-.40358 0-.807055-.0789-1.21053-.2368l.227-1.3941c.353053.1401.672287.2104.95842.2104.40358 0 .72712-.0748.97102-.2236.2435-.1492.42879-.3419.55485-.5787.12605-.2367.21009-.5129.25221-.8285.04181-.3157.06302-.649.06302-.9996v-14.4149h1.51327z"/><path d="m9.43262 20.8264c0-.9292.15136-1.7841.454-2.5646.30258-.7801.72268-1.4554 1.26108-2.0255.5379-.5696 1.1853-1.0127 1.942-1.3284.7566-.3156 1.5802-.4735 2.4717-.4735.891 0 1.7106.1579 2.4591.4735.7479.3157 1.3954.7588 1.942 1.3284.5463.5701.9711 1.2454 1.2737 2.0255.3026.7805.454 1.6354.454 2.5646 0 .9297-.1514 1.7846-.454 2.5647-.3026.7805-.7274 1.4558-1.2737 2.0255-.5465.57-1.194 1.0127-1.942 1.3284-.7485.3156-1.5681.4734-2.4591.4734-.8914 0-1.7151-.1578-2.4717-.4734-.7566-.3157-1.4041-.7584-1.942-1.3284-.5384-.5697-.9585-1.245-1.26108-2.0255-.30264-.7802-.454-1.6351-.454-2.5647zm1.51328 0c0 .684.1047 1.3284.3152 1.9334.21.605.517 1.1311.9205 1.5783.4036.4472.891.8023 1.4629 1.0653.5714.2631 1.2106.3946 1.9168.3946s1.345-.1315 1.9168-.3946c.5715-.263 1.0593-.6181 1.4629-1.0653s.7101-.9733.9206-1.5783c.21-.605.3152-1.2494.3152-1.9334 0-.6839-.1052-1.3283-.3152-1.9333-.2105-.605-.517-1.1311-.9206-1.5783s-.8914-.8023-1.4629-1.0653c-.5718-.2631-1.2105-.3946-1.9168-.3946-.7062 0-1.3454.1315-1.9168.3946-.5719.263-1.0593.6181-1.4629 1.0653s-.7105.9733-.9205 1.5783c-.2104.605-.3152 1.2494-.3152 1.9333z"/><path d="m36.1917 23.4832c0 .2281.0083.5043.0252.8286.0165.3247.0291.6535.0378.9864.0083.3334.0209.6445.0378.9338.0165.2894.0252.513.0252.6708h-1.5132c-.017-.4558-.0297-.8944-.0379-1.3152-.0086-.4209-.0296-.6926-.063-.8155h-.0756c-.3026.6667-.8071 1.2409-1.5133 1.723s-1.5302.7234-2.4717.7234c-.908 0-1.652-.1492-2.232-.4472-.5801-.298-1.0341-.688-1.3619-1.1706-.328-.4821-.551-1.039-.6684-1.6703-.1179-.6313-.1766-1.2799-.1766-1.9465v-7.2338h1.5133v7.1548c0 .4912.0418.9692.126 1.4336.084.4649.2309.8812.4414 1.2495.2101.3683.5044.6621.8828.8812.3783.2195.8701.3288 1.4754.3288.5549 0 1.0802-.1007 1.5763-.3025.4957-.2014.9245-.5084 1.2863-.9206.3614-.4119.6471-.9293.8576-1.552.21-.6223.3152-1.3547.3152-2.1964v-6.0764h1.5133z"/><path d="m41.6143 18.1697c0-.2277-.0087-.5039-.0252-.8286-.017-.3243-.0296-.6531-.0378-.9864-.0087-.3329-.0213-.6445-.0378-.9338-.017-.2894-.0252-.513-.0252-.6708h1.5132c.0165.4562.0291.8944.0379 1.3152.0083.4209.0291.693.063.8155.3865-.7189.8827-1.3062 1.488-1.7624.6054-.4558 1.345-.684 2.2195-.684.1514 0 .2983.0132.4414.0395.1428.0263.29.0571.4414.0921l-.1766 1.5519c-.2018-.0698-.3952-.1052-.58-.1052-.6557 0-1.2233.1098-1.7024.3288-.4793.2195-.8745.522-1.1854.9075-.3112.386-.5422.8377-.6936 1.3547-.1514.5175-.227 1.0744-.227 1.6703v6.6288h-1.5133v-8.7331z"/><path d="m51.2735 18.1697c0-.2277-.0087-.5039-.0252-.8286-.017-.3243-.0296-.6531-.0378-.9864-.0087-.3329-.0213-.6445-.0378-.9338-.017-.2894-.0252-.513-.0252-.6708h1.5132c.0165.4562.0291.8944.0378 1.3152.0083.4209.0291.693.0631.8155h.0756c.3026-.6663.8071-1.2404 1.5133-1.723.7063-.4821 1.5298-.7234 2.4716-.7234.9079 0 1.6477.1492 2.2195.4472.5714.2984 1.0215.6885 1.3493 1.1706.3278.4825.5548 1.039.681 1.6703s.1892 1.2803.1892 1.9465v7.2338h-1.5133v-7.1548c0-.4908-.0421-.9688-.126-1.4336-.0844-.4645-.2313-.8812-.4414-1.2495-.2105-.3683-.5044-.6617-.8827-.8812-.3784-.2191-.8702-.3288-1.4755-.3288-.5548 0-1.0805.1011-1.5762.3025-.4963.2018-.925.5088-1.2864.9206-.3617.4123-.6474.9298-.8575 1.552-.2105.6227-.3152 1.3547-.3152 2.1964v6.0764h-1.5133v-8.7331z"/><path d="m69.8361 30.6643c-.286.7892-.681 1.4114-1.1853 1.8677-.5044.4558-1.177.6839-2.0177.6839-.2522 0-.5045-.0222-.7567-.0658-.2522-.044-.4961-.1011-.7314-.171l.1513-1.473c.2184.0698.4414.1356.6683.1973.227.0612.458.092.6937.092.2687 0 .5084-.0616.7189-.1841.21-.1229.3908-.2807.5422-.4735.1514-.1932.2813-.4077.3909-.6444.1091-.2368.2056-.478.29-.7234l1.0592-2.8146-4.7415-12.2053h1.6898l3.8588 10.2325 3.7579-10.2325h1.6141z"/><path d="m4.33197.0953275c-.18559-.0566073-.4541-.0953275-.63426-.0953275-.22977 0-.43555.0427185-.59553.0953275-1.33474.4183465-2.03541 1.4505325-2.32093 2.6166625v.64004c.77744 2.77923 1.91766 5.20145 2.93583 7.73357.97133-2.4814 2.24765-4.95402 2.95263-7.72473v-.64888c-.25487-1.14687-1.00966-2.226619-2.33774-2.6166625zm-.63426 4.3706525c-.71697 0-1.29815-.59669-1.29815-1.3328 0-.7361.58118-1.3328 1.29815-1.3328s1.29815.5967 1.29815 1.3328c0 .73611-.58118 1.3328-1.29815 1.3328z"/></g></svg>