<svg width="13" height="13" viewBox="0 0 13 13" fill="none" xmlns="http://www.w3.org/2000/svg">
<path d="M10.7634 7.65583C10.4843 7.36525 10.1477 7.20989 9.79093 7.20989C9.43706 7.20989 9.09756 7.36237 8.80698 7.65296L7.89783 8.55923C7.82303 8.51895 7.74823 8.48155 7.6763 8.44414C7.57273 8.39236 7.47491 8.34345 7.39147 8.29166C6.53987 7.75077 5.76594 7.0459 5.02366 6.13387C4.66403 5.6793 4.42236 5.29665 4.24686 4.90825C4.48278 4.69247 4.70143 4.46806 4.91433 4.25228C4.99489 4.17172 5.07545 4.08829 5.15601 4.00773C5.76019 3.40355 5.76019 2.62099 5.15601 2.01681L4.37057 1.23138C4.28138 1.14219 4.18932 1.05012 4.103 0.958058C3.93038 0.779681 3.74913 0.595549 3.56212 0.422926C3.28305 0.14673 2.94931 0 2.59831 0C2.24731 0 1.90782 0.14673 1.62011 0.422926C1.61723 0.425803 1.61723 0.425804 1.61436 0.428681L0.636159 1.41551C0.267896 1.78377 0.0578714 2.23259 0.0118386 2.75334C-0.0572106 3.59344 0.190216 4.37599 0.380101 4.88811C0.846183 6.14538 1.54243 7.31059 2.58104 8.55923C3.84119 10.0639 5.3574 11.2521 7.08938 12.0894C7.7511 12.403 8.63436 12.7741 9.62119 12.8374C9.68161 12.8403 9.7449 12.8432 9.80244 12.8432C10.467 12.8432 11.0252 12.6044 11.4625 12.1296C11.4654 12.1239 11.4711 12.121 11.474 12.1153C11.6236 11.934 11.7962 11.77 11.9775 11.5945C12.1012 11.4766 12.2278 11.3528 12.3515 11.2234C12.6363 10.927 12.7859 10.5818 12.7859 10.2279C12.7859 9.87116 12.6335 9.52879 12.3429 9.24109L10.7634 7.65583ZM11.7934 10.6854C11.7905 10.6854 11.7905 10.6882 11.7934 10.6854C11.6812 10.8062 11.5661 10.9155 11.4424 11.0364C11.2554 11.2147 11.0655 11.4018 10.8871 11.6118C10.5965 11.9225 10.2541 12.0692 9.80532 12.0692C9.76216 12.0692 9.71613 12.0692 9.67297 12.0664C8.81849 12.0117 8.02442 11.6779 7.42888 11.3931C5.80046 10.6048 4.37057 9.48564 3.18235 8.06725C2.20127 6.88478 1.54531 5.7915 1.11087 4.61767C0.843306 3.90128 0.745487 3.34313 0.788642 2.81663C0.817413 2.48002 0.94688 2.20094 1.18568 1.96215L2.16675 0.981074C2.30773 0.84873 2.45733 0.776804 2.60406 0.776804C2.78532 0.776804 2.93205 0.886132 3.02411 0.978197C3.02699 0.981074 3.02986 0.983951 3.03274 0.986829C3.20824 1.15082 3.37511 1.32057 3.55061 1.50182C3.6398 1.59389 3.73187 1.68595 3.82393 1.78089L4.60937 2.56633C4.91433 2.8713 4.91433 3.15325 4.60937 3.45822C4.52593 3.54165 4.44537 3.62508 4.36194 3.70564C4.12027 3.95307 3.8901 4.18323 3.6398 4.40764C3.63405 4.4134 3.62829 4.41627 3.62541 4.42203C3.37799 4.66945 3.42402 4.91113 3.47581 5.07512C3.47868 5.08375 3.48156 5.09238 3.48444 5.10101C3.68871 5.59586 3.97641 6.06195 4.41373 6.61722L4.4166 6.62009C5.21067 7.59829 6.04789 8.36071 6.97142 8.94475C7.08938 9.01955 7.21022 9.07997 7.3253 9.13751C7.42888 9.1893 7.52669 9.23821 7.61013 9.29C7.62164 9.29575 7.63315 9.30438 7.64465 9.31014C7.74247 9.35905 7.83454 9.38206 7.92948 9.38206C8.16828 9.38206 8.31788 9.23246 8.36679 9.18355L9.35074 8.19959C9.44856 8.10178 9.60393 7.98382 9.78518 7.98382C9.96356 7.98382 10.1103 8.09602 10.1995 8.19384C10.2024 8.19672 10.2024 8.19672 10.2052 8.19959L11.7905 9.78485C12.0868 10.0783 12.0868 10.3804 11.7934 10.6854Z" fill="white"/>
</svg>
