<svg fill="none" height="28" viewBox="0 0 75 28" width="75" xmlns="http://www.w3.org/2000/svg"><g clip-rule="evenodd" fill="#122842" fill-rule="evenodd"><path d="m27.6678 8.05339c.3534 1.63296 1.5196 2.79381 3.2351 2.79041 1.3815-.0033 2.3257-.6806 2.7918-1.93067.5586-1.49816.5539-3.054.0415-4.5649-.4258-1.25338-1.5846-1.98838-2.8695-2.02929-1.8556-.05901-2.9575 1.43244-3.2109 3.1063-.053.34873-.1 2.11111.012 2.62815zm4.4945-7.913284c4.0727.887894 5.2965 5.514494 4.1954 9.157954-.5734 1.89984-2.4256 3.80974-4.9874 3.77624-.6807-.0087-1.3801.0376-2.0393-.0972-2.2379-.4581-3.549-1.9314-4.1324-4.07135-.448-1.64234-.4332-3.30011.0952-4.93172.8692-2.68314 3.6623-4.332192 6.4675-3.9076914.1375.0201185.2709.0449314.401.0737674z"/><path d="m21.273 6.61005c.0087-1.54108-.5453-3.08283-1.6524-3.81381-1.2749-.83961-3.6643-.74706-4.5636 1.43379-.6009 1.45926-.6089 2.96681-.118 4.45021.4815 1.45796 1.6879 2.18626 3.1177 2.17076 2.1406-.0221 3.2055-2.13119 3.2163-4.24095zm-1.9039-6.479511c2.4585.60758 4.2745 2.793121 4.3986 5.346831.0697 1.45189.0375 2.85885-.4829 4.22959-.7658 2.01724-2.5249 3.30344-4.6923 3.35914-.7907.0201-1.6075.0275-2.3713-.1408-2.044-.4507-3.276-1.8543-3.8628-3.78099-.5163-1.69733-.515-3.4738.0081-5.16308.6096-1.9676 2.0232-3.312185 4.0297-3.797712.7243-.17570161 1.4801-.1555831 2.2251-.1354645.2254.0067061.452.0120711.6713.0637085.0255.006036.051.012071.0765.018777z"/><path d="m67.3634 27.4078c-1.8455-.3977-3.4717-1.8845-4.1122-3.6348-.6465-1.7671-.6015-3.5603-.0469-5.3535.6431-2.0803 2.6315-3.9285 5.4025-3.9513 2.1708-.0181 4.0532.7598 5.0537 2.6476.3421.6471.4138 1.6712.3139 1.6712h-2.3411c-.0711-.1576-.0792-.2528-.116-.3568-.4306-1.2037-1.3735-1.6544-2.5578-1.7208-1.2534-.0704-2.2466.4419-2.8273 1.5444-.8812 1.6719-.902 3.437-.2012 5.1665.5016 1.2386 2.038 1.9615 3.4067 1.7436 1.3741-.2186 2.2915-1.2051 2.478-2.7489h-2.5698v-1.8013h4.7285c0 2.1279 0 4.2565-.004 6.385-.4111.0054-.8215.0121-1.232.0188-.0751.0013-.1582-.0007-.2119-.0523-.0402-.0396-.0543-.0979-.0664-.1529l-.226-1.0335c-.9274.7411-1.9441 1.4399-3.1103 1.6592-.5928.1113-1.1876.0932-1.7604-.0302z"/><path d="m.0275627 6.00095c.1012633-1.26277.4882093-2.5745 1.1916873-3.55964.98447-1.37611 2.30827-2.172801 4.04584-2.18286.83693-.004024 1.67453-.023471 2.47659.278977 1.82341.686713 2.91382 1.965583 3.21692 3.939883-.4614.25483-.9214.12071-1.35931.14418-.41176.02213-.8262.00469-1.26076.00469-.06438-.20588-.09858-.35006-.15223-.48485-.36817-.92009-1.00123-1.49481-2.02393-1.5954-1.10517-.10931-2.038.15424-2.65095 1.15547-.70549 1.15212-.83626 2.43233-.72427 3.73199.05097.59349.22332 1.19973.4634 1.74696.50296 1.15075 1.44921 1.69935 2.61943 1.63095 1.03343-.0604 1.91529-.7954 2.29754-1.92334.05834-.17235.08047-.35744.13547-.60758h1.16754 1.42907c-.3816 2.23982-1.4237 3.87012-3.5623 4.51062-2.14933.6431-4.14979.2608-5.74787-1.4305-1.003913-1.0629-1.47804-2.73475-1.5725972-4.16652-.02548348-.38427-.02213038-.78597.0107299-1.19303z"/><path d="m16.4294 27.4031c-1.8066-.3454-3.4-1.5478-3.4228-3.5744-.0342-3.0023-.01-6.004-.01-9.056.7289-.2079 1.4391-.0268 2.2117-.1207.0254.3588.0637.6498.0643.9409.0054 2.0534-.0127 4.1075.0121 6.1609.0087.6773.0825 1.3607.2072 2.0273.0577.3112.2649.6257.4788.8731.7397.8544 3.3022.7431 3.8742-.631.2817-.678.4634-1.352.4594-2.0883-.0121-2.0159-.0041-4.0324-.0041-6.0483v-1.1609h2.2842v.7069c0 2.4725.0053 4.9444-.0047 7.417-.0014.3762-.0369.7591-.112 1.1273-.3192 1.5538-1.2561 2.6805-2.771 3.1895-.672.226-1.3808.3319-2.0896.3406-.3937.0047-.7907-.0301-1.1777-.1039z"/><path d="m26.6979 18.4755v8.4733h-2.2311v-12.2174h2.893c1.6947 2.7449 3.4048 5.5159 5.2087 8.4378.1174-1.0321.0517-1.9133.0631-2.7898.0107-.9503.0027-1.9005.0027-2.8508v-2.8126c.7544-.069 1.4565-.0449 2.2224-.0188v12.2496h-2.9635c-1.6457-2.6839-3.345-5.4555-5.1953-8.4713z"/><path d="m53.6635 18.8639v8.0246c-.7276.2407-1.4418.0697-2.1386.11-.22-.8866-.2964-8.8696-.1187-12.2435.8429-.173 1.7047-.0429 2.6368-.0731 1.4989 2.777 2.9991 5.5581 4.6199 8.5631v-8.5047h2.6899v12.2119h-2.7321c-1.5652-2.667-3.1727-5.4045-4.7795-8.1413-.059.0174-.1187.0356-.1777.053z"/><path d="m7.98027 19.2365v-4.5025h2.67313v12.2206h-2.68453v-5.381h-4.47168c-.20722.857-.06773 1.7617-.09254 2.655-.02414.8731-.00537 1.7476-.00537 2.6771-.8718.2199-1.73623.0335-2.577852.1147-.21795-.9242-.291718-9.0225-.12004-12.2475.415112-.1838.872472-.0758 1.313072-.0939.41511-.0175.83022-.004 1.34257-.004v4.5568c1.55919.0208 3.02114.0114 4.62324.0047z"/><path d="m39.4693 27.0023v-10.0291h-3.5865v-2.2513h9.4436c.2153.6659.0503 1.3802.0906 2.1433-1.0207.2233-2.0467-.006-3.1191.1455-.1482 1.0744-.0503 2.1681-.0677 3.2559-.0168 1.1038-.004 2.207-.004 3.3115v3.4034c-.9054.0536-1.7617.0168-2.7569.0208z"/><path d="m38.6338.546265h2.6456v9.982835h5.4508v2.2586h-8.0964z"/><path d="m46.8574 14.7079h2.1601v12.2656c-.6928.0644-1.3942.0389-2.1601.0134z"/></g></svg>