<svg width="124" height="32" viewBox="0 0 124 32" fill="none" xmlns="http://www.w3.org/2000/svg">
<path fill-rule="evenodd" clip-rule="evenodd" d="M101.963 28.9065C102.454 28.8777 102.946 28.8509 103.437 28.8207C104.072 28.7811 104.694 28.6624 105.295 28.4579C105.725 28.3117 106.147 28.1112 106.462 27.7839C107.381 26.8303 107.062 25.3616 105.803 24.8808C105.216 24.6562 104.605 24.5428 103.988 24.4677C103.331 24.3879 102.669 24.3416 102.01 24.2826C101.081 24.2001 100.151 24.1297 99.2231 24.0305C98.9589 24.0023 98.7302 24.0506 98.5022 24.1606C98.4023 24.2089 98.301 24.2538 98.2051 24.3094C97.4923 24.7239 96.9316 25.2624 96.776 26.1147C96.654 26.7827 96.8619 27.3561 97.3568 27.8047C97.8054 28.2104 98.3594 28.4344 98.9421 28.5779C99.9333 28.8214 100.941 28.9179 101.963 28.9065ZM97.6941 13.7472C97.7229 14.0161 97.7337 14.2884 97.7826 14.5546C97.9912 15.698 98.6142 16.5491 99.6543 17.0681C100.612 17.5463 101.623 17.5724 102.652 17.337C103.35 17.1781 103.954 16.8374 104.43 16.3143C105.09 15.5867 105.343 14.6841 105.337 13.7251C105.333 13.039 105.178 12.3711 104.813 11.7649C104.4 11.0768 103.834 10.5765 103.087 10.2774C102.309 9.96494 101.506 9.91933 100.686 10.0461C99.6677 10.203 98.8583 10.6912 98.2903 11.561C97.8571 12.2249 97.6995 12.9619 97.6941 13.7472ZM100.868 31.241C100.773 31.2208 100.678 31.186 100.581 31.1833C99.317 31.1424 98.079 30.9512 96.8853 30.5247C96.0612 30.2303 95.2993 29.8347 94.7032 29.1667C94.2035 28.6068 93.9219 27.963 93.8394 27.2159C93.7804 26.6848 93.8327 26.1778 94.0225 25.6802C94.3028 24.9479 94.8058 24.3973 95.4449 23.9668C95.703 23.7931 95.9827 23.6522 96.2543 23.498C96.3482 23.4437 96.4461 23.3954 96.5554 23.3377C96.3086 23.1305 96.0819 22.9394 95.856 22.7476C95.1739 22.1708 95.0512 21.0912 95.4335 20.3099C95.7091 19.7466 96.1604 19.3529 96.656 19.0002C96.8518 18.8607 97.0604 18.738 97.3005 18.5837C97.114 18.4342 96.9417 18.2913 96.7653 18.1538C95.7547 17.3712 95.0854 16.3599 94.8259 15.1113C94.4544 13.3187 94.7179 11.6361 95.8888 10.1782C96.5628 9.33925 97.4393 8.75112 98.4405 8.34741C99.0883 8.08519 99.7616 7.91217 100.45 7.83304C100.975 7.77269 101.505 7.74921 102.044 7.78543C103.044 7.85249 103.973 8.15829 104.912 8.46074C105.942 8.7927 106.988 8.85775 108.022 8.47616C108.35 8.35478 108.654 8.17103 108.937 8.03087C109.494 8.59352 110.044 9.14812 110.614 9.72284C109.763 10.3693 108.75 10.7341 107.615 10.8488C107.729 11.113 107.831 11.341 107.926 11.5711C108.233 12.3161 108.397 13.096 108.367 13.8968C108.322 15.1434 107.977 16.3043 107.163 17.274C106.418 18.1626 105.489 18.8084 104.39 19.198C103.637 19.4649 102.868 19.6238 102.067 19.6902C101.108 19.7694 100.184 19.6527 99.2728 19.375C99.1601 19.3402 99.0722 19.3429 98.9629 19.4079C98.6665 19.5863 98.3875 19.7747 98.2112 20.0859C97.9597 20.5305 98.0361 21.0476 98.5854 21.2514C98.8845 21.3628 99.2017 21.4473 99.5175 21.4861C100.334 21.5847 101.155 21.6578 101.975 21.7309C102.565 21.7826 103.159 21.806 103.749 21.861C104.769 21.9556 105.793 22.0421 106.774 22.366C107.574 22.6309 108.324 22.9883 108.907 23.6281C109.488 24.2645 109.785 25.0149 109.827 25.868C109.858 26.505 109.832 27.1368 109.592 27.7417C109.343 28.3667 108.983 28.9059 108.48 29.3652C107.65 30.1237 106.652 30.5261 105.591 30.8024C104.734 31.0257 103.861 31.1705 102.971 31.1839C102.895 31.1846 102.82 31.2215 102.745 31.241H100.868Z" fill="#122842"/>
<path fill-rule="evenodd" clip-rule="evenodd" d="M0 7.87111C0.908016 7.87245 1.81603 7.87312 2.72405 7.8758C3.04125 7.87647 3.06003 7.89391 3.1405 8.19166C3.81447 10.6763 4.48844 13.1609 5.16376 15.6449C5.52254 16.9654 5.88333 18.2838 6.24479 19.6029C6.26826 19.6894 6.30179 19.7719 6.39032 19.8718C6.43525 19.7498 6.4889 19.6304 6.52444 19.5063C7.12531 17.4066 7.7235 15.3069 8.32102 13.2072C8.78107 11.5917 9.23843 9.97551 9.6978 8.35932C9.7092 8.32042 9.72463 8.28287 9.73737 8.24531C9.85271 7.87647 9.85271 7.8758 10.2356 7.87513C10.8211 7.87446 11.4065 7.88385 11.9913 7.87044C12.2026 7.86574 12.2931 7.94354 12.3494 8.14271C12.8336 9.85614 13.3265 11.5669 13.8167 13.2783C14.4203 15.3861 15.0238 17.4945 15.6287 19.6016C15.6556 19.6941 15.6951 19.7819 15.791 19.8725C15.8172 19.7927 15.8474 19.7142 15.8695 19.6337C16.5461 17.1598 17.2221 14.6853 17.8968 12.2113C18.2683 10.8527 18.6405 9.49467 19.004 8.13466C19.0502 7.96164 19.1186 7.87245 19.3071 7.87379C20.1648 7.87849 21.0225 7.87513 21.8796 7.87715C21.9379 7.87782 21.9963 7.89525 22.0942 7.91202C22.0559 8.0676 22.0278 8.21178 21.9855 8.35127C21.39 10.3256 20.7945 12.2999 20.1956 14.2735C19.8221 15.5061 19.4405 16.736 19.0677 17.9693C18.5144 19.7987 17.9665 21.6302 17.4146 23.4596C17.3013 23.8358 17.1779 24.208 17.0659 24.5849C17.0169 24.7506 16.9351 24.8304 16.7467 24.827C16.0915 24.8169 15.4349 24.8176 14.7797 24.8263C14.6014 24.829 14.5269 24.7506 14.4833 24.5956C14.0548 23.0653 13.6249 21.5356 13.1924 20.0066C12.7981 18.6124 12.399 17.2195 12.0034 15.8266C11.7311 14.869 11.4615 13.91 11.1879 12.9524C11.1524 12.829 11.1034 12.7083 11.0404 12.5299C10.9861 12.6493 10.9458 12.715 10.9257 12.7854C10.4489 14.4693 9.97544 16.1546 9.49863 17.8378C9.09559 19.2609 8.68919 20.6826 8.28481 22.1056C8.06217 22.8889 7.83885 23.6722 7.61889 24.4562C7.52098 24.8055 7.50421 24.8223 7.14677 24.823C6.56132 24.8237 5.97587 24.8149 5.3911 24.8277C5.1832 24.833 5.08395 24.7633 5.02561 24.5648C4.75267 23.638 4.46698 22.7159 4.18801 21.7911C3.95262 21.0105 3.72059 20.2293 3.48654 19.4487C3.06808 18.0518 2.64961 16.6542 2.22846 15.2573C1.95284 14.3419 1.67118 13.4285 1.39623 12.5138C0.985137 11.1457 0.579414 9.77566 0.167654 8.40827C0.124735 8.26543 0.0563319 8.13064 0 7.99249V7.87111Z" fill="#122842"/>
<path fill-rule="evenodd" clip-rule="evenodd" d="M50.2561 16.5505C50.2561 15.4205 50.2193 14.2891 50.2722 13.1618C50.2977 12.6153 50.0516 12.2967 49.674 12.0037C49.6264 11.9661 49.5741 11.9346 49.5278 11.8971C48.3268 10.9173 46.9916 10.3037 45.4015 10.419C45.1045 10.4411 44.802 10.4995 44.5197 10.594C43.4406 10.9562 42.7881 11.7663 42.3361 12.7615C41.8285 13.8814 41.6944 15.0818 41.6642 16.2909C41.6501 16.8408 41.7185 17.3941 41.7748 17.9433C41.9009 19.1665 42.2744 20.3006 43.0584 21.2703C43.4178 21.7149 43.8625 22.0515 44.3829 22.295C44.9683 22.5699 45.5826 22.6041 46.2123 22.5867C46.9426 22.5673 47.626 22.3755 48.2597 22.0287C48.9149 21.6713 49.5091 21.2253 50.0516 20.7083C50.2079 20.5601 50.2608 20.4166 50.2595 20.2114C50.2528 18.9915 50.2561 17.7703 50.2561 16.5505ZM50.2561 9.92611V9.50697V0.426811C50.2561 0.000968599 50.2568 0.000298052 50.6887 0.000298052C51.4659 0.000298052 52.2425 -0.000372565 53.0191 0.000298052C53.3953 0.00096867 53.3966 0.00230991 53.3966 0.390598C53.3973 4.3962 53.3966 8.4018 53.3973 12.4067C53.3973 15.4238 53.3852 18.4403 53.4087 21.4567C53.4168 22.5223 53.5348 23.5832 53.8647 24.6086C53.8828 24.6643 53.8849 24.7246 53.8976 24.8051H50.6699C50.4164 24.2116 50.3634 23.5692 50.2421 22.8757C50.0798 23.034 49.9624 23.1527 49.841 23.2667C49.1 23.9655 48.2678 24.5194 47.2974 24.848C46.5959 25.0861 45.871 25.2155 45.1319 25.1813C43.7169 25.1156 42.4381 24.6757 41.3349 23.7522C40.0024 22.6363 39.2748 21.1784 38.8758 19.526C38.6873 18.7427 38.5653 17.9494 38.5639 17.1399C38.5639 16.8791 38.5042 16.6182 38.515 16.3587C38.5753 14.8665 38.7282 13.3885 39.2889 11.9856C39.6537 11.0709 40.1519 10.248 40.8534 9.53849C41.6602 8.72369 42.6098 8.20061 43.7203 7.96321C45.1427 7.66076 46.5174 7.8472 47.854 8.39643C48.7204 8.75253 49.4729 9.28433 50.2561 9.92611Z" fill="#122842"/>
<path fill-rule="evenodd" clip-rule="evenodd" d="M67.0226 16.5473C67.0226 15.4689 67.0293 14.3892 67.0206 13.3102C67.0118 12.3935 67.1419 12.6597 66.468 12.0635C65.8611 11.5257 65.1992 11.0811 64.4507 10.7632C63.6601 10.4286 62.8312 10.3246 61.9943 10.4366C60.8542 10.5888 60.018 11.2481 59.4151 12.2017C58.7471 13.2586 58.495 14.4482 58.4346 15.6748C58.4011 16.3655 58.442 17.0637 58.489 17.7557C58.5607 18.8019 58.8471 19.7911 59.3903 20.6971C59.9066 21.5588 60.6188 22.1717 61.5865 22.4755C62.0291 22.6144 62.4825 22.5848 62.9345 22.5848C63.5702 22.5842 64.1664 22.4165 64.7384 22.1523C65.5143 21.7942 66.1675 21.2597 66.81 20.7091C66.9676 20.5743 67.0279 20.4174 67.0266 20.2082C67.0185 18.9883 67.0226 17.7671 67.0226 16.5473ZM70.6365 24.8033C70.5178 24.8113 70.43 24.8227 70.3408 24.8227C69.4636 24.824 68.5858 24.8247 67.7079 24.8234C67.3954 24.8227 67.3619 24.8133 67.2948 24.5055C67.1882 24.0159 67.1097 23.5197 67.0185 23.0261C67.0138 23 66.9991 22.9751 66.981 22.9309C66.7671 23.1126 66.5578 23.2816 66.3593 23.4613C65.5854 24.1621 64.7069 24.6805 63.6963 24.9454C62.9559 25.1399 62.2062 25.2371 61.4289 25.1453C60.6785 25.0567 59.9589 24.881 59.2924 24.5437C58.839 24.3144 58.3991 24.0294 58.0128 23.6987C57.0545 22.8772 56.3825 21.8492 55.9507 20.6588C55.6435 19.8125 55.4309 18.9421 55.3538 18.0508C55.2834 17.2306 55.2492 16.3984 55.2928 15.5769C55.3578 14.3584 55.5798 13.16 56.064 12.028C56.398 11.2467 56.8245 10.5271 57.3972 9.88603C58.4018 8.76409 59.6532 8.12164 61.1191 7.88961C61.6114 7.81181 62.1116 7.80578 62.6213 7.85272C63.4696 7.93051 64.2623 8.15718 65.0121 8.53809C65.623 8.84859 66.1816 9.24559 66.6993 9.69692C66.7443 9.73649 66.7919 9.77404 66.8415 9.80824C66.8817 9.83507 66.9267 9.85519 67.0226 9.90615V4.95163V0.0279541H70.1101V0.487327C70.1101 7.32696 70.1014 14.1659 70.1181 21.0055C70.1208 22.2321 70.2429 23.4553 70.6003 24.6403C70.6117 24.6785 70.6177 24.7174 70.6365 24.8033Z" fill="#122842"/>
<path fill-rule="evenodd" clip-rule="evenodd" d="M33.6077 14.7575C33.6077 14.6951 33.6111 14.6562 33.6077 14.6174C33.5205 13.7268 33.2986 12.8731 32.86 12.0905C32.5984 11.6237 32.2625 11.2099 31.8252 10.886C31.1164 10.3603 30.3136 10.1671 29.4438 10.1691C28.2629 10.1725 27.3495 10.7063 26.6561 11.613C26.1122 12.3245 25.8044 13.1601 25.6166 14.0353C25.567 14.2653 25.5415 14.5 25.5013 14.7575H33.6077ZM25.4114 16.9491C25.4154 17.6988 25.4953 18.3755 25.6663 19.0407C25.9399 20.1077 26.4247 21.0526 27.267 21.7896C27.7968 22.253 28.4158 22.5286 29.1045 22.6413C30.146 22.8116 31.1526 22.6748 32.1055 22.2215C32.8419 21.8714 33.4682 21.3725 33.9846 20.7388C34.1616 20.5221 34.3501 20.3156 34.5486 20.0869C35.2112 20.604 35.8489 21.1016 36.4894 21.6012C36.4605 21.6796 36.4538 21.7326 36.4256 21.7702C35.5666 22.8995 34.56 23.8611 33.2509 24.4479C32.3845 24.8369 31.4758 25.0964 30.5148 25.1293C30.2338 25.1387 29.9528 25.1883 29.6725 25.1836C28.2334 25.1615 26.8801 24.8114 25.6656 24.0254C24.4846 23.2603 23.6363 22.1987 23.0891 20.9071C22.6787 19.9394 22.4278 18.9267 22.3353 17.8745C22.2548 16.9591 22.2595 16.0471 22.3326 15.131C22.3977 14.3236 22.568 13.5417 22.8195 12.7752C23.1461 11.78 23.641 10.88 24.3297 10.082C25.3222 8.93186 26.5662 8.22435 28.0463 7.938C29.4814 7.66037 30.8937 7.77437 32.2598 8.3055C32.8251 8.52479 33.3435 8.83529 33.8223 9.21218C34.6284 9.84792 35.2273 10.6486 35.6819 11.558C36.0897 12.3735 36.3499 13.2392 36.5088 14.1365C36.653 14.952 36.7093 15.7735 36.6899 16.6004C36.6825 16.9182 36.659 16.9477 36.3432 16.9484C35.2635 16.9504 34.1838 16.9491 33.1041 16.9491H25.8091H25.4114Z" fill="#122842"/>
<path fill-rule="evenodd" clip-rule="evenodd" d="M89.6666 24.7983V24.3597C89.6666 20.6666 89.6707 16.9742 89.6613 13.2811C89.6599 12.8412 89.6157 12.3966 89.5406 11.9627C89.3655 10.9541 88.6607 10.437 87.6722 10.3512C86.2331 10.2265 85.0052 10.7522 83.8806 11.5778C83.4111 11.9225 82.9786 12.3154 82.5246 12.6809C82.3355 12.8325 82.2751 13.0176 82.2758 13.259C82.2818 16.9521 82.2798 20.6445 82.2798 24.3376V24.7467C82.0471 24.8372 79.6503 24.862 79.2513 24.7889C79.1782 24.5703 79.1601 8.56468 79.2385 8.20053H82.2751V10.594C82.5205 10.3874 82.711 10.2292 82.8981 10.0675C83.9872 9.13068 85.1802 8.38227 86.5939 8.04026C87.2021 7.89339 87.8204 7.79012 88.4448 7.81962C89.4293 7.86522 90.3876 8.0255 91.2077 8.63979C91.7114 9.01667 92.0849 9.49751 92.325 10.0756C92.6422 10.8387 92.7548 11.6415 92.7542 12.4636C92.7535 16.4297 92.7542 20.3944 92.7542 24.3597V24.7983H89.6666Z" fill="#122842"/>
<path fill-rule="evenodd" clip-rule="evenodd" d="M123.318 10.2287C122.729 10.8886 122.148 11.5398 121.555 12.2044C121.351 12.0327 121.149 11.8718 120.956 11.7001C120.083 10.9202 119.073 10.4165 117.906 10.3099C117.135 10.2401 116.349 10.2234 115.601 10.4856C114.951 10.7123 114.395 11.0717 114.196 11.7812C113.991 12.5142 114.224 13.2988 114.974 13.8038C115.508 14.1633 116.115 14.3551 116.725 14.5281C117.828 14.8406 118.943 15.1108 120.038 15.4509C120.885 15.7144 121.691 16.0839 122.401 16.6378C123.277 17.3205 123.798 18.1964 123.944 19.3056C124.049 20.0976 124.01 20.8708 123.756 21.6286C123.454 22.5332 122.92 23.2716 122.149 23.8389C121.277 24.4787 120.291 24.8449 119.233 24.9991C118.539 25.1017 117.834 25.1808 117.134 25.1755C115.796 25.1641 114.497 24.92 113.272 24.3406C112.613 24.028 111.994 23.6606 111.463 23.1576C111.159 22.8699 110.862 22.5742 110.552 22.2737C110.646 22.1711 110.701 22.0973 110.769 22.0403C111.215 21.6661 111.666 21.296 112.112 20.9217C112.205 20.844 112.286 20.7534 112.378 20.6743C112.574 20.5033 112.613 20.5107 112.806 20.6857C113.156 21.0022 113.488 21.3449 113.869 21.6199C114.602 22.1503 115.414 22.5279 116.324 22.6432C117.278 22.7639 118.234 22.7827 119.169 22.5151C119.767 22.3441 120.318 22.0732 120.67 21.5186C121.218 20.6562 121.009 19.26 120.092 18.6276C119.468 18.1977 118.773 17.9429 118.053 17.739C116.892 17.4117 115.722 17.1133 114.569 16.7592C113.757 16.5104 112.996 16.1275 112.353 15.5581C111.77 15.0424 111.413 14.3812 111.254 13.6221C111.035 12.5712 111.073 11.5418 111.596 10.5748C112.044 9.74389 112.71 9.12625 113.535 8.68566C114.453 8.19544 115.435 7.91713 116.477 7.86952C116.819 7.85409 117.161 7.80648 117.501 7.81922C118.872 7.87153 120.195 8.13374 121.428 8.76747C122.111 9.11888 122.927 9.73987 123.318 10.2287Z" fill="#122842"/>
<path fill-rule="evenodd" clip-rule="evenodd" d="M76.263 24.8002H73.1694C73.16 24.6849 73.1439 24.5783 73.1439 24.4723C73.1426 19.157 73.1426 13.8423 73.1426 8.52702C73.1432 8.17696 73.1453 8.17495 73.4967 8.17427C74.3135 8.17293 75.1303 8.17293 75.9471 8.17495C76.045 8.17495 76.1429 8.18769 76.263 8.19573V24.8002Z" fill="#122842"/>
<path fill-rule="evenodd" clip-rule="evenodd" d="M74.7289 3.39096C75.4928 3.35475 76.3163 4.08706 76.2841 4.98099C76.2519 5.8709 75.5887 6.54018 74.6887 6.53414C73.8135 6.52677 73.1268 5.80652 73.1329 4.90924C73.1369 4.22923 73.7941 3.34066 74.7289 3.39096Z" fill="#122842"/>
<path fill-rule="evenodd" clip-rule="evenodd" d="M6.81594 4.42962C6.68517 4.84004 6.55373 5.2518 6.42363 5.66221C6.35388 5.88285 6.28347 6.10348 6.21775 6.32613C6.17617 6.46897 6.09972 6.54273 5.93743 6.54139C5.77179 6.54005 5.67656 6.48037 5.62693 6.31942C5.44922 5.74202 5.2648 5.16663 5.08373 4.5899C5.06898 4.54295 5.05221 4.49668 4.99588 4.4437C4.98515 4.50205 4.96637 4.55972 4.9657 4.61806C4.96369 5.15321 4.96637 5.6877 4.96369 6.22218C4.96168 6.51591 4.9087 6.55615 4.62972 6.53938C4.47213 6.53066 4.41915 6.45488 4.41982 6.31003C4.4225 6.02703 4.41982 5.7447 4.41982 5.46237C4.41982 4.86686 4.41714 4.27202 4.42116 3.67719C4.42317 3.41766 4.44463 3.40156 4.69477 3.39083C5.22188 3.36937 5.22322 3.3687 5.37679 3.8663C5.51561 4.31897 5.65108 4.7723 5.78989 5.22497C5.82141 5.3269 5.86165 5.42616 5.91932 5.58643C5.97364 5.48048 6.00784 5.4342 6.02327 5.38257C6.18556 4.84272 6.34449 4.3022 6.50544 3.76101C6.52288 3.70334 6.54702 3.64701 6.56312 3.58933C6.6 3.45655 6.67645 3.39016 6.82332 3.39016C7.56368 3.39016 7.44095 3.34858 7.44498 3.96421C7.45101 4.73006 7.449 5.49724 7.44498 6.26309C7.44431 6.5092 7.40139 6.54206 7.16198 6.53871C6.93933 6.53469 6.90647 6.50719 6.90379 6.26778C6.89909 5.75409 6.90312 5.23905 6.90111 4.72469C6.90111 4.62879 6.89306 4.53155 6.88836 4.43565L6.81594 4.42962Z" fill="#122842"/>
<path fill-rule="evenodd" clip-rule="evenodd" d="M36.1221 4.42761C36.0275 4.77499 35.933 5.12169 35.8391 5.46907C35.7593 5.76012 35.6748 6.0505 35.6044 6.34423C35.5688 6.49177 35.4796 6.53737 35.3428 6.53804C35.2 6.53871 35.0907 6.51189 35.0518 6.34356C34.8332 5.40268 34.6072 4.46315 34.3852 3.52227C34.3785 3.49411 34.3879 3.46326 34.3899 3.42302C34.4274 3.41296 34.465 3.39485 34.5026 3.39418C34.9183 3.38547 34.9512 3.37608 35.0223 3.78851C35.1007 4.24453 35.202 4.69585 35.2959 5.14986C35.3046 5.19345 35.3234 5.23436 35.3871 5.27929C35.4367 5.11968 35.4917 4.96276 35.5353 4.80248C35.6386 4.42291 35.7452 4.04535 35.8331 3.66243C35.876 3.47466 35.9585 3.38211 36.1596 3.38882C36.4038 3.3962 36.4333 3.40961 36.5043 3.67316C36.6304 4.13991 36.7545 4.60666 36.8819 5.07274C36.9 5.13913 36.9309 5.20083 37.004 5.2699C37.0301 5.16998 37.0589 5.0714 37.0811 4.97081C37.1689 4.56776 37.2534 4.16338 37.3413 3.76101C37.4271 3.36401 37.5223 3.31371 37.9381 3.45588C37.9254 3.54977 37.92 3.64969 37.8972 3.74492C37.698 4.59794 37.4928 5.44896 37.2963 6.30265C37.2541 6.48707 37.1488 6.54005 36.9724 6.54139C36.7833 6.54273 36.737 6.42471 36.6988 6.28052C36.5546 5.73531 36.4098 5.19077 36.2623 4.64556C36.2421 4.57045 36.2106 4.49735 36.1845 4.42291C36.1637 4.42425 36.1429 4.42559 36.1221 4.42761Z" fill="#122842"/>
<path fill-rule="evenodd" clip-rule="evenodd" d="M42.8724 4.84285C42.8744 4.85157 42.8758 4.85961 42.8778 4.86833C43.0427 4.83346 43.2124 4.81334 43.3713 4.76036C43.5363 4.70537 43.649 4.49882 43.6215 4.3258C43.594 4.14809 43.5122 3.98848 43.3224 3.95093C43.1085 3.90801 42.8872 3.89661 42.6692 3.87783C42.5002 3.8624 42.4372 3.95562 42.4419 4.11523C42.4466 4.27551 42.4479 4.43645 42.4412 4.59673C42.4338 4.77646 42.5143 4.85559 42.692 4.84352C42.7524 4.83949 42.8127 4.84285 42.8724 4.84285ZM43.6269 5.24656C43.8052 5.66838 43.9796 6.08215 44.154 6.49324C44.113 6.51336 44.0956 6.52811 44.0775 6.53012C43.5806 6.58243 43.5544 6.56902 43.3532 6.11836C43.2634 5.91718 43.1849 5.70996 43.0957 5.50676C43.0206 5.33709 42.8597 5.28814 42.6062 5.33106C42.4124 5.36325 42.4459 5.50743 42.4432 5.63351C42.4385 5.85481 42.4472 6.07678 42.4392 6.29809C42.4318 6.51671 42.3909 6.54286 42.1227 6.53817C41.8739 6.53482 41.841 6.51604 41.839 6.29541C41.8336 5.64021 41.837 4.98569 41.837 4.3305C41.837 4.08907 41.8376 3.84765 41.8383 3.60556C41.8383 3.49424 41.8685 3.39498 42.0006 3.39834C42.4928 3.40773 42.9864 3.40303 43.4753 3.44729C43.8495 3.48082 44.1151 3.71084 44.1828 4.09041C44.2552 4.49413 44.2063 4.87772 43.8099 5.12384C43.7516 5.16005 43.6953 5.20029 43.6269 5.24656Z" fill="#122842"/>
<path fill-rule="evenodd" clip-rule="evenodd" d="M12.4175 4.3524C12.4175 4.46238 12.4007 4.57572 12.4242 4.68033C12.4376 4.74069 12.5201 4.83189 12.5677 4.82988C12.8138 4.81848 13.0653 4.80574 13.3034 4.74673C13.4958 4.69978 13.5736 4.52676 13.5589 4.3229C13.5448 4.13244 13.4516 4.00301 13.2645 3.95137C13.1585 3.92187 13.0512 3.8937 12.9426 3.88163C12.4457 3.82396 12.4121 3.85547 12.4175 4.3524ZM14.1128 6.53526C13.9043 6.53526 13.7527 6.55203 13.6085 6.52789C13.5374 6.51649 13.4549 6.43936 13.4201 6.37096C13.2806 6.09198 13.1585 5.80429 13.0278 5.52129C12.9486 5.34894 12.6455 5.24969 12.498 5.36034C12.4463 5.39924 12.4195 5.49648 12.4168 5.5689C12.4061 5.81033 12.4175 6.05242 12.4094 6.29451C12.4027 6.51649 12.3625 6.54197 12.0963 6.53862C11.8475 6.53593 11.8113 6.51514 11.8099 6.29786C11.8046 5.41064 11.8072 4.52408 11.8079 3.63685C11.8079 3.52084 11.8166 3.39543 11.9709 3.39811C12.4732 3.40884 12.9775 3.40013 13.4757 3.45512C13.8895 3.50072 14.08 3.8253 14.1557 4.20621C14.2154 4.50664 14.0961 4.97876 13.7299 5.1263C13.6769 5.14843 13.6347 5.19537 13.571 5.24298C13.744 5.65474 13.913 6.0598 14.1128 6.53526Z" fill="#122842"/>
<path fill-rule="evenodd" clip-rule="evenodd" d="M20.3416 4.96269C20.3416 5.39591 20.3456 5.8298 20.3409 6.26302C20.3376 6.51517 20.3014 6.54133 20.0271 6.53864C19.7709 6.53596 19.7441 6.5145 19.7387 6.26838C19.7327 6.01623 19.7401 5.76408 19.736 5.51193C19.732 5.22557 19.7173 5.21149 19.4209 5.20747C19.219 5.20478 19.0171 5.20344 18.816 5.20814C18.5497 5.2135 18.5309 5.23228 18.5269 5.5079C18.5229 5.77012 18.5309 6.033 18.5236 6.29454C18.5169 6.51584 18.4766 6.54133 18.2097 6.53864C17.9616 6.53596 17.9247 6.5145 17.924 6.29789C17.9187 5.41066 17.9187 4.52344 17.9234 3.63621C17.9247 3.41357 17.9696 3.38808 18.2359 3.39076C18.484 3.39412 18.5162 3.41491 18.5236 3.63152C18.5309 3.87294 18.5229 4.11503 18.5269 4.35712C18.5309 4.64415 18.5457 4.65756 18.8421 4.66158C19.0433 4.66494 19.2452 4.66561 19.447 4.66158C19.7132 4.65555 19.7313 4.63677 19.736 4.36115C19.7401 4.11905 19.732 3.87696 19.7394 3.63554C19.7461 3.41356 19.7863 3.38741 20.0532 3.39076C20.3014 3.39412 20.3362 3.41424 20.3396 3.63286C20.3463 4.07614 20.3416 4.51941 20.3416 4.96269Z" fill="#122842"/>
<path fill-rule="evenodd" clip-rule="evenodd" d="M31.5443 4.95673C31.5443 4.5329 31.5409 4.10907 31.5449 3.68524C31.5476 3.41565 31.5691 3.39419 31.8407 3.39218C32.3551 3.38815 32.8701 3.38815 33.3845 3.39218C33.6326 3.39486 33.6654 3.43376 33.6621 3.67384C33.6587 3.89782 33.6319 3.93001 33.3938 3.93404C33.0713 3.9394 32.748 3.93202 32.4255 3.93672C32.1646 3.94141 32.1472 3.96824 32.1492 4.28075C32.1512 4.57045 32.168 4.59258 32.4201 4.60063C32.5811 4.606 32.7427 4.606 32.9043 4.60264C33.1122 4.59862 33.1175 4.73677 33.1182 4.88833C33.1196 5.03787 33.0887 5.14853 32.9056 5.14517C32.734 5.14182 32.5629 5.15054 32.3913 5.14584C32.2296 5.14182 32.1438 5.20419 32.1492 5.37519C32.1539 5.51602 32.1519 5.65752 32.1505 5.79902C32.1485 5.97674 32.2377 6.05453 32.4114 6.05386C32.7447 6.05252 33.0773 6.05051 33.4106 6.05721C33.6312 6.06124 33.7023 6.14506 33.6527 6.36167C33.6373 6.42806 33.5467 6.52664 33.4891 6.52799C32.9043 6.54006 32.3188 6.53536 31.7341 6.53536C31.5644 6.53536 31.5443 6.42136 31.5443 6.28858C31.545 5.84463 31.5443 5.40068 31.5443 4.95673Z" fill="#122842"/>
<path fill-rule="evenodd" clip-rule="evenodd" d="M9.99089 5.30389C9.87688 4.88342 9.79909 4.51189 9.59724 4.17323C9.48524 4.55683 9.27467 4.90085 9.25925 5.30389H9.99089ZM10.9519 6.53112C10.7775 6.53112 10.6266 6.55527 10.4905 6.52106C10.4167 6.50363 10.3322 6.39432 10.3135 6.3125C10.1767 5.70761 10.1243 5.82496 9.64217 5.81289C9.60193 5.81155 9.56169 5.81289 9.52146 5.81289C9.01179 5.81222 9.07818 5.80417 8.93198 6.23136C8.81798 6.56465 8.76098 6.5888 8.27344 6.49893C8.28551 6.42584 8.28819 6.34872 8.31166 6.27763C8.60003 5.40784 8.88974 4.53805 9.18212 3.6696C9.27668 3.39062 9.28339 3.38995 9.62943 3.39062C9.95535 3.39129 9.96004 3.38995 10.0486 3.66021C10.3316 4.52061 10.6112 5.38169 10.8902 6.24343C10.9137 6.31787 10.9237 6.39633 10.9519 6.53112Z" fill="#122842"/>
<path fill-rule="evenodd" clip-rule="evenodd" d="M39.719 4.17682L39.6217 4.17481C39.5131 4.53895 39.4045 4.9031 39.2844 5.3048H40.0617C39.9416 4.90913 39.8303 4.54298 39.719 4.17682ZM40.9911 6.53404C40.8644 6.53404 40.7202 6.56086 40.5941 6.52398C40.509 6.49917 40.4198 6.3979 40.3836 6.30938C40.1804 5.81447 40.1857 5.81245 39.6653 5.81245C39.6452 5.81245 39.6251 5.81178 39.605 5.81245C39.1684 5.82453 39.1121 5.70247 38.9806 6.28993C38.9431 6.45893 38.8593 6.56221 38.6688 6.5394C38.5716 6.528 38.473 6.52599 38.3281 6.5166C38.4039 6.23897 38.4609 5.98883 38.54 5.74606C38.7701 5.03722 39.0128 4.3324 39.2422 3.62423C39.2972 3.45255 39.3877 3.37006 39.5694 3.38951C39.6492 3.3989 39.7311 3.39421 39.8115 3.39152C39.9376 3.3875 40.0255 3.43914 40.0657 3.56119C40.3809 4.51749 40.6961 5.47379 41.0099 6.43009C41.0153 6.44686 41.0039 6.46832 40.9911 6.53404Z" fill="#122842"/>
<path fill-rule="evenodd" clip-rule="evenodd" d="M22.6285 4.16429C22.6023 4.16362 22.5755 4.16295 22.5493 4.16161C22.4467 4.48216 22.3414 4.8007 22.2429 5.12193C22.206 5.24197 22.2596 5.31976 22.389 5.32312C22.5735 5.32714 22.7586 5.32379 22.9839 5.32379C22.8545 4.90264 22.7411 4.5338 22.6285 4.16429ZM23.9268 6.52017C23.8201 6.52687 23.7323 6.53827 23.6444 6.5376C23.3742 6.53693 23.3373 6.50743 23.2642 6.25058C23.2535 6.21235 23.2501 6.17145 23.2401 6.13322C23.1609 5.83614 23.1354 5.81736 22.8256 5.81267C22.7552 5.81133 22.6841 5.80931 22.6144 5.81267C22.434 5.82206 22.2201 5.77779 22.0859 5.86162C21.9706 5.93472 21.933 6.14999 21.8861 6.30892C21.8338 6.48731 21.7251 6.55169 21.5514 6.53895C21.4542 6.53157 21.3556 6.52889 21.2275 6.52352C21.2577 6.40885 21.2752 6.32301 21.3026 6.23918C21.5816 5.37811 21.8666 4.51904 22.1382 3.65529C22.1999 3.45746 22.3046 3.3857 22.5077 3.38704C22.9302 3.38972 22.9343 3.37899 23.063 3.77198C23.3393 4.61293 23.6116 5.45456 23.8832 6.29685C23.904 6.36123 23.91 6.43031 23.9268 6.52017Z" fill="#122842"/>
<path fill-rule="evenodd" clip-rule="evenodd" d="M27.8755 3.87357C27.5442 4.1398 27.5234 4.14383 27.1894 3.9413C26.9788 3.81321 26.7642 3.77968 26.5255 3.86284C26.3827 3.91381 26.3076 4.00635 26.2895 4.14517C26.2707 4.29271 26.3451 4.40336 26.4786 4.45701C26.7763 4.57571 27.0808 4.67831 27.3792 4.79634C27.7876 4.95662 27.966 5.20877 27.972 5.61449C27.9787 6.10874 27.7688 6.41655 27.29 6.54799C26.9366 6.6459 26.5745 6.64121 26.2231 6.50843C25.9454 6.40314 25.757 6.20799 25.6182 5.90822C25.7744 5.83982 25.9173 5.77678 26.0601 5.71441C26.0809 5.69698 26.101 5.67887 26.1218 5.66144C26.1694 5.73722 26.207 5.82238 26.266 5.88878C26.4973 6.14495 26.7978 6.15166 27.1022 6.08392C27.2699 6.04637 27.3933 5.91895 27.404 5.74392C27.4168 5.55548 27.2927 5.41867 27.1291 5.34625C26.8997 5.24632 26.659 5.17256 26.4242 5.08403C26.321 5.04447 26.2244 4.98881 26.1211 4.94924C25.6329 4.75811 25.5659 4.02178 25.9079 3.66702C26.3505 3.20899 27.3182 3.21167 27.746 3.68311C27.7977 3.74012 27.8339 3.81053 27.8755 3.87357Z" fill="#122842"/>
<path fill-rule="evenodd" clip-rule="evenodd" d="M29.3651 5.23647C29.3651 4.96487 29.3651 4.69193 29.3651 4.41966C29.3644 3.91603 29.3993 3.9348 28.895 3.93547C28.8145 3.93614 28.734 3.93346 28.6529 3.93346C28.4618 3.93346 28.4571 3.80068 28.4571 3.66186C28.4564 3.5217 28.4651 3.39294 28.6549 3.39294C29.3101 3.39361 29.9659 3.39361 30.6211 3.39361C30.8123 3.39361 30.8176 3.52439 30.8176 3.66387C30.8183 3.80403 30.8096 3.93413 30.6198 3.93346C30.5286 3.93279 30.4381 3.93547 30.3475 3.93614C29.9733 3.93816 29.9713 3.93816 29.9706 4.30029C29.9693 4.86495 29.97 5.42961 29.97 5.99494C29.97 6.06468 29.9706 6.13577 29.97 6.20619C29.9659 6.52138 29.9324 6.55222 29.6213 6.53814C29.3939 6.52808 29.3698 6.50796 29.3664 6.26453C29.3617 5.92184 29.3651 5.57983 29.3651 5.23647Z" fill="#122842"/>
<path fill-rule="evenodd" clip-rule="evenodd" d="M15.6209 5.23776C15.6209 4.91586 15.6222 4.59262 15.6202 4.27073C15.6176 3.94682 15.6082 3.93877 15.2729 3.93609C15.1521 3.93475 15.0314 3.9334 14.9101 3.9334C14.7203 3.93408 14.7129 3.8033 14.7129 3.66315C14.7129 3.52366 14.7189 3.39356 14.9094 3.39356H16.8756C17.0661 3.39289 17.0741 3.52232 17.0735 3.66247C17.0735 3.80196 17.0674 3.93408 16.877 3.9334C16.8059 3.9334 16.7355 3.93542 16.6651 3.93542C16.1219 3.93609 16.1661 3.90256 16.1654 4.45045C16.1648 5.05602 16.1681 5.66092 16.1634 6.26514C16.1621 6.50791 16.1306 6.53339 15.9086 6.53808C15.6679 6.54345 15.6263 6.50925 15.6222 6.26648C15.6176 5.92313 15.6209 5.58111 15.6209 5.23776Z" fill="#122842"/>
<path fill-rule="evenodd" clip-rule="evenodd" d="M45.7713 5.23776C45.7713 4.92458 45.772 4.61207 45.7713 4.30023C45.7693 3.93877 45.7679 3.9381 45.3931 3.93609C45.2824 3.93542 45.1711 3.9334 45.0604 3.9334C44.87 3.93408 44.8633 3.80263 44.8633 3.66315C44.8633 3.52299 44.87 3.39289 45.0604 3.39356H47.0267C47.2171 3.39289 47.2245 3.52299 47.2239 3.66315C47.2239 3.80263 47.2171 3.93408 47.0267 3.9334C46.9362 3.9334 46.8456 3.93542 46.7544 3.93609C46.3165 3.93676 46.3165 3.93676 46.3158 4.36059C46.3158 4.99566 46.3185 5.63074 46.3145 6.26581C46.3125 6.50925 46.2689 6.53674 46.0281 6.5401C45.8538 6.54278 45.7666 6.48242 45.77 6.29599C45.7767 5.94325 45.772 5.5905 45.772 5.23776H45.7713Z" fill="#122842"/>
</svg>
