<svg fill="none" height="32" viewBox="0 0 124 32" width="124" xmlns="http://www.w3.org/2000/svg"><g clip-rule="evenodd" fill="#122842" fill-rule="evenodd"><path d="m101.963 28.9065c.491-.0288.983-.0556 1.474-.0858.635-.0396 1.257-.1583 1.858-.3628.43-.1462.852-.3467 1.167-.674.919-.9536.6-2.4223-.659-2.9031-.587-.2246-1.198-.338-1.815-.4131-.657-.0798-1.319-.1261-1.978-.1851-.929-.0825-1.859-.1529-2.7869-.2521-.2642-.0282-.4929.0201-.7209.1301-.0999.0483-.2012.0932-.2971.1488-.7128.4145-1.2735.953-1.4291 1.8053-.122.668.0859 1.2414.5808 1.69.4486.4057 1.0026.6297 1.5853.7732.9912.2435 1.9989.34 3.0209.3286zm-4.2689-15.1593c.0288.2689.0396.5412.0885.8074.2086 1.1434.8316 1.9945 1.8717 2.5135.9577.4782 1.9687.5043 2.9977.2689.698-.1589 1.302-.4996 1.778-1.0227.66-.7276.913-1.6302.907-2.5892-.004-.6861-.159-1.354-.524-1.9602-.413-.6881-.979-1.1884-1.726-1.4875-.778-.31246-1.581-.35807-2.401-.2313-1.0183.1569-1.8277.6451-2.3957 1.5149-.4332.6639-.5908 1.4009-.5962 2.1862zm3.1739 17.4938c-.095-.0202-.19-.055-.287-.0577-1.264-.0409-2.502-.2321-3.6957-.6586-.8241-.2944-1.586-.69-2.1821-1.358-.4997-.5599-.7813-1.2037-.8638-1.9508-.059-.5311-.0067-1.0381.1831-1.5357.2803-.7323.7833-1.2829 1.4224-1.7134.2581-.1737.5378-.3146.8094-.4688.0939-.0543.1918-.1026.3011-.1603-.2468-.2072-.4735-.3983-.6994-.5901-.6821-.5768-.8048-1.6564-.4225-2.4377.2756-.5633.7269-.957 1.2225-1.3097.1958-.1395.4044-.2622.6445-.4165-.1865-.1495-.3588-.2924-.5352-.4299-1.0106-.7826-1.6799-1.7939-1.9394-3.0425-.3715-1.7926-.108-3.4752 1.0629-4.9331.674-.83895 1.5505-1.42708 2.5517-1.83079.6478-.26222 1.3211-.43524 2.0095-.51437.525-.06035 1.055-.08383 1.594-.04761 1 .06706 1.929.37286 2.868.67531 1.03.33196 2.076.39701 3.11.01542.328-.12138.632-.30513.915-.44529.557.56265 1.107 1.11725 1.677 1.69197-.851.64646-1.864 1.01126-2.999 1.12596.114.2642.216.4922.311.7223.307.745.471 1.5249.441 2.3257-.045 1.2466-.39 2.4075-1.204 3.3772-.745.8886-1.674 1.5344-2.773 1.924-.753.2669-1.522.4258-2.323.4922-.959.0792-1.883-.0375-2.7942-.3152-.1127-.0348-.2006-.0321-.3099.0329-.2964.1784-.5754.3668-.7517.678-.2515.4446-.1751.9617.3742 1.1655.2991.1114.6163.1959.9321.2347.8165.0986 1.6375.1717 2.4575.2448.59.0517 1.184.0751 1.774.1301 1.02.0946 2.044.1811 3.025.505.8.2649 1.55.6223 2.133 1.2621.581.6364.878 1.3868.92 2.2399.031.637.005 1.2688-.235 1.8737-.249.625-.609 1.1642-1.112 1.6235-.83.7585-1.828 1.1609-2.889 1.4372-.857.2233-1.73.3681-2.62.3815-.076.0007-.151.0376-.226.0571z"/><path d="m0 7.87111c.908016.00134 1.81603.00201 2.72405.00469.3172.00067.33598.01811.41645.31586.67397 2.48464 1.34794 4.96924 2.02326 7.45324.35878 1.3205.71957 2.6389 1.08103 3.958.02347.0865.057.169.14553.2689.04493-.122.09858-.2414.13412-.3655.60087-2.0997 1.19906-4.1994 1.79658-6.2991.46005-1.6155.91741-3.23169 1.37678-4.84788.0114-.0389.02683-.07645.03957-.11401.11534-.36884.11534-.36951.49823-.37018.5855-.00067 1.1709.00872 1.7557-.00469.2113-.0047.3018.0731.3581.27227.4842 1.71343.9771 3.42419 1.4673 5.13559.6036 2.1078 1.2071 4.2162 1.812 6.3233.0269.0925.0664.1803.1623.2709.0262-.0798.0564-.1583.0785-.2388.6766-2.4739 1.3526-4.9484 2.0273-7.4224.3715-1.3586.7437-2.71663 1.1072-4.07664.0462-.17302.1146-.26221.3031-.26087.8577.0047 1.7154.00134 2.5725.00336.0583.00067.1167.0181.2146.03487-.0383.15558-.0664.29976-.1087.43925-.5955 1.97433-1.191 3.94863-1.7899 5.92223-.3735 1.2326-.7551 2.4625-1.1279 3.6958-.5533 1.8294-1.1012 3.6609-1.6531 5.4903-.1133.3762-.2367.7484-.3487 1.1253-.049.1657-.1308.2455-.3192.2421-.6552-.0101-1.3118-.0094-1.967-.0007-.1783.0027-.2528-.0757-.2964-.2307-.4285-1.5303-.8584-3.06-1.2909-4.589-.3943-1.3942-.7934-2.7871-1.189-4.18-.2723-.9576-.5419-1.9166-.8155-2.8742-.0355-.1234-.0845-.2441-.1475-.4225-.0543.1194-.0946.1851-.1147.2555-.4768 1.6839-.95026 3.3692-1.42707 5.0524-.40304 1.4231-.80944 2.8448-1.21382 4.2678-.22264.7833-.44596 1.5666-.66592 2.3506-.09791.3493-.11468.3661-.47212.3668-.58545.0007-1.1709-.0081-1.75567.0047-.2079.0053-.30715-.0644-.36549-.2629-.27294-.9268-.55863-1.8489-.8376-2.7737-.23539-.7806-.46742-1.5618-.70147-2.3424-.41846-1.3969-.83693-2.7945-1.25808-4.1914-.27562-.9154-.55728-1.8288-.83223-2.7435-.411093-1.3681-.816816-2.73814-1.228576-4.10553-.042919-.14284-.1113221-.27763-.167654-.41578z"/><path d="m50.2561 16.5505c0-1.13-.0368-2.2614.0161-3.3887.0255-.5465-.2206-.8651-.5982-1.1581-.0476-.0376-.0999-.0691-.1462-.1066-1.201-.9798-2.5362-1.5934-4.1263-1.4781-.297.0221-.5995.0805-.8818.175-1.0791.3622-1.7316 1.1723-2.1836 2.1675-.5076 1.1199-.6417 2.3203-.6719 3.5294-.0141.5499.0543 1.1032.1106 1.6524.1261 1.2232.4996 2.3573 1.2836 3.327.3594.4446.8041.7812 1.3245 1.0247.5854.2749 1.1997.3091 1.8294.2917.7303-.0194 1.4137-.2112 2.0474-.558.6552-.3574 1.2494-.8034 1.7919-1.3204.1563-.1482.2092-.2917.2079-.4969-.0067-1.2199-.0034-2.4411-.0034-3.6609zm0-6.62439v-.41914-9.080159c0-.4258424.0007-.42651295.4326-.42651295.7772 0 1.5538-.00067062 2.3304 0 .3762.00067062.3775.00201186.3775.39029995.0007 4.005602 0 8.011202.0007 12.016102 0 3.0171-.0121 6.0336.0114 9.05.0081 1.0656.1261 2.1265.456 3.1519.0181.0557.0202.116.0329.1965h-3.2277c-.2535-.5935-.3065-1.2359-.4278-1.9294-.1623.1583-.2797.277-.4011.391-.741.6988-1.5732 1.2527-2.5436 1.5813-.7015.2381-1.4264.3675-2.1655.3333-1.415-.0657-2.6938-.5056-3.797-1.4291-1.3325-1.1159-2.0601-2.5738-2.4591-4.2262-.1885-.7833-.3105-1.5766-.3119-2.3861 0-.2608-.0597-.5217-.0489-.7812.0603-1.4922.2132-2.9702.7739-4.3731.3648-.9147.863-1.7376 1.5645-2.44711.8068-.8148 1.7564-1.33788 2.8669-1.57528 1.4224-.30245 2.7971-.11601 4.1337.43322.8664.3561 1.6189.8879 2.4021 1.52968z"/><path d="m67.0226 16.5473c0-1.0784.0067-2.1581-.002-3.2371-.0088-.9167.1213-.6505-.5526-1.2467-.6069-.5378-1.2688-.9824-2.0173-1.3003-.7906-.3346-1.6195-.4386-2.4564-.3266-1.1401.1522-1.9763.8115-2.5792 1.7651-.668 1.0569-.9201 2.2465-.9805 3.4731-.0335.6907.0074 1.3889.0544 2.0809.0717 1.0462.3581 2.0354.9013 2.9414.5163.8617 1.2285 1.4746 2.1962 1.7784.4426.1389.896.1093 1.348.1093.6357-.0006 1.2319-.1683 1.8039-.4325.7759-.3581 1.4291-.8926 2.0716-1.4432.1576-.1348.2179-.2917.2166-.5009-.0081-1.2199-.004-2.4411-.004-3.6609zm3.6139 8.256c-.1187.008-.2065.0194-.2957.0194-.8772.0013-1.755.002-2.6329.0007-.3125-.0007-.346-.0101-.4131-.3179-.1066-.4896-.1851-.9858-.2763-1.4794-.0047-.0261-.0194-.051-.0375-.0952-.2139.1817-.4232.3507-.6217.5304-.7739.7008-1.6524 1.2192-2.663 1.4841-.7404.1945-1.4901.2917-2.2674.1999-.7504-.0886-1.47-.2643-2.1365-.6016-.4534-.2293-.8933-.5143-1.2796-.845-.9583-.8215-1.6303-1.8495-2.0621-3.0399-.3072-.8463-.5198-1.7167-.5969-2.608-.0704-.8202-.1046-1.6524-.061-2.4739.065-1.2185.287-2.4169.7712-3.5489.334-.7813.7605-1.5009 1.3332-2.14197 1.0046-1.12194 2.256-1.76439 3.7219-1.99642.4923-.0778.9925-.08383 1.5022-.03689.8483.07779 1.641.30446 2.3908.68537.6109.3105 1.1695.7075 1.6872 1.15883.045.03957.0926.07712.1422.11132.0402.02683.0852.04695.1811.09791v-4.95452-4.9236759h3.0875v.4593729c0 6.839633-.0087 13.678573.008 20.518173.0027 1.2266.1248 2.4498.4822 3.6348.0114.0382.0174.0771.0362.163z"/><path d="m33.6077 14.7575c0-.0624.0034-.1013 0-.1401-.0872-.8906-.3091-1.7443-.7477-2.5269-.2616-.4668-.5975-.8806-1.0348-1.2045-.7088-.5257-1.5116-.7189-2.3814-.7169-1.1809.0034-2.0943.5372-2.7877 1.4439-.5439.7115-.8517 1.5471-1.0395 2.4223-.0496.23-.0751.4647-.1153.7222zm-8.1963 2.1916c.004.7497.0839 1.4264.2549 2.0916.2736 1.067.7584 2.0119 1.6007 2.7489.5298.4634 1.1488.739 1.8375.8517 1.0415.1703 2.0481.0335 3.001-.4198.7364-.3501 1.3627-.849 1.8791-1.4827.177-.2167.3655-.4232.564-.6519.6626.5171 1.3003 1.0147 1.9408 1.5143-.0289.0784-.0356.1314-.0638.169-.859 1.1293-1.8656 2.0909-3.1747 2.6777-.8664.389-1.7751.6485-2.7361.6814-.281.0094-.562.059-.8423.0543-1.4391-.0221-2.7924-.3722-4.0069-1.1582-1.181-.7651-2.0293-1.8267-2.5765-3.1183-.4104-.9677-.6613-1.9804-.7538-3.0326-.0805-.9154-.0758-1.8274-.0027-2.7435.0651-.8074.2354-1.5893.4869-2.3558.3266-.9952.8215-1.8952 1.5102-2.6932.9925-1.15014 2.2365-1.85765 3.7166-2.144 1.4351-.27763 2.8474-.16363 4.2135.3675.5653.21929 1.0837.52979 1.5625.90668.8061.63574 1.405 1.43642 1.8596 2.34582.4078.8155.668 1.6812.8269 2.5785.1442.8155.2005 1.637.1811 2.4639-.0074.3178-.0309.3473-.3467.348-1.0797.002-2.1594.0007-3.2391.0007h-7.295z"/><path d="m89.6666 24.7983v-.4386c0-3.6931.0041-7.3855-.0053-11.0786-.0014-.4399-.0456-.8845-.1207-1.3184-.1751-1.0086-.8799-1.5257-1.8684-1.6115-1.4391-.1247-2.667.401-3.7916 1.2266-.4695.3447-.902.7376-1.356 1.1031-.1891.1516-.2495.3367-.2488.5781.006 3.6931.004 7.3855.004 11.0786v.4091c-.2327.0905-2.6295.1153-3.0285.0422-.0731-.2186-.0912-16.22422-.0128-16.58837h3.0366v2.39347c.2454-.2066.4359-.3648.623-.5265 1.0891-.93682 2.2821-1.68523 3.6958-2.02724.6082-.14687 1.2265-.25014 1.8509-.22064.9845.0456 1.9428.20588 2.7629.82017.5037.37688.8772.85772 1.1173 1.43581.3172.7631.4298 1.5659.4292 2.388-.0007 3.9661 0 7.9308 0 11.8961v.4386z"/><path d="m123.318 10.2287c-.589.6599-1.17 1.3111-1.763 1.9757-.204-.1717-.406-.3326-.599-.5043-.873-.7799-1.883-1.2836-3.05-1.3902-.771-.0698-1.557-.0865-2.305.1757-.65.2267-1.206.5861-1.405 1.2956-.205.733.028 1.5176.778 2.0226.534.3595 1.141.5513 1.751.7243 1.103.3125 2.218.5827 3.313.9228.847.2635 1.653.633 2.363 1.1869.876.6827 1.397 1.5586 1.543 2.6678.105.792.066 1.5652-.188 2.323-.302.9046-.836 1.643-1.607 2.2103-.872.6398-1.858 1.006-2.916 1.1602-.694.1026-1.399.1817-2.099.1764-1.338-.0114-2.637-.2555-3.862-.8349-.659-.3126-1.278-.68-1.809-1.183-.304-.2877-.601-.5834-.911-.8839.094-.1026.149-.1764.217-.2334.446-.3742.897-.7443 1.343-1.1186.093-.0777.174-.1683.266-.2474.196-.171.235-.1636.428.0114.35.3165.682.6592 1.063.9342.733.5304 1.545.908 2.455 1.0233.954.1207 1.91.1395 2.845-.1281.598-.171 1.149-.4419 1.501-.9965.548-.8624.339-2.2586-.578-2.891-.624-.4299-1.319-.6847-2.039-.8886-1.161-.3273-2.331-.6257-3.484-.9798-.812-.2488-1.573-.6317-2.216-1.2011-.583-.5157-.94-1.1769-1.099-1.936-.219-1.0509-.181-2.0803.342-3.0473.448-.83091 1.114-1.44855 1.939-1.88914.918-.49022 1.9-.76853 2.942-.81614.342-.01543.684-.06304 1.024-.0503 1.371.05231 2.694.31452 3.927.94825.683.35141 1.499.9724 1.89 1.46123z"/><path d="m76.263 24.8002h-3.0936c-.0094-.1153-.0255-.2219-.0255-.3279-.0013-5.3153-.0013-10.63-.0013-15.94528.0006-.35006.0027-.35207.3541-.35275.8168-.00134 1.6336-.00134 2.4504.00068.0979 0 .1958.01274.3159.02078z"/><path d="m74.7289 3.39096c.7639-.03621 1.5874.6961 1.5552 1.59003-.0322.88991-.6954 1.55919-1.5954 1.55315-.8752-.00737-1.5619-.72762-1.5558-1.6249.004-.68001.6612-1.56858 1.596-1.51828z"/><path d="m6.81594 4.42962c-.13077.41042-.26221.82218-.39231 1.23259-.06975.22064-.14016.44127-.20588.66392-.04158.14284-.11803.2166-.28032.21526-.16564-.00134-.26087-.06102-.3105-.22197-.17771-.5774-.36213-1.15279-.5432-1.72952-.01475-.04695-.03152-.09322-.08785-.1462-.01073.05835-.02951.11602-.03018.17436-.00201.53515.00067 1.06964-.00201 1.60412-.00201.29373-.05499.33397-.33397.3172-.15759-.00872-.21057-.0845-.2099-.22935.00268-.283 0-.56533 0-.84766 0-.59551-.00268-1.19035.00134-1.78518.00201-.25953.02347-.27563.27361-.28636.52711-.02146.52845-.02213.68202.47547.13882.45267.27429.906.4131 1.35867.03152.10193.07176.20119.12943.36146.05432-.10595.08852-.15223.10395-.20386.16229-.53985.32122-1.08037.48217-1.62156.01744-.05767.04158-.114.05768-.17168.03688-.13278.11333-.19917.2602-.19917.74036 0 .61763-.04158.62166.57405.00603.76585.00402 1.53303 0 2.29888-.00067.24611-.04359.27897-.283.27562-.22265-.00402-.25551-.03152-.25819-.27093-.0047-.51369-.00067-1.02873-.00268-1.54309 0-.0959-.00805-.19314-.01275-.28904z"/><path d="m36.1221 4.42761c-.0946.34738-.1891.69408-.283 1.04146-.0798.29105-.1643.58143-.2347.87516-.0356.14754-.1248.19314-.2616.19381-.1428.00067-.2521-.02615-.291-.19448-.2186-.94088-.4446-1.88041-.6666-2.82129-.0067-.02816.0027-.05901.0047-.09925.0375-.01006.0751-.02817.1127-.02884.4157-.00871.4486-.0181.5197.39433.0784.45602.1797.90734.2736 1.36135.0087.04359.0275.0845.0912.12943.0496-.15961.1046-.31653.1482-.47681.1033-.37957.2099-.75713.2978-1.14005.0429-.18777.1254-.28032.3265-.27361.2442.00738.2737.02079.3447.28434.1261.46675.2502.9335.3776 1.39958.0181.06639.049.12809.1221.19716.0261-.09992.0549-.1985.0771-.29909.0878-.40305.1723-.80743.2602-1.2098.0858-.397.181-.4473.5968-.30513-.0127.09389-.0181.19381-.0409.28904-.1992.85302-.4044 1.70404-.6009 2.55773-.0422.18442-.1475.2374-.3239.23874-.1891.00134-.2354-.11668-.2736-.26087-.1442-.54521-.289-1.08975-.4365-1.63496-.0202-.07511-.0517-.14821-.0778-.22265-.0208.00134-.0416.00268-.0624.0047z"/><path d="m42.8724 4.84285c.002.00872.0034.01676.0054.02548.1649-.03487.3346-.05499.4935-.10797.165-.05499.2777-.26154.2502-.43456-.0275-.17771-.1093-.33732-.2991-.37487-.2139-.04292-.4352-.05432-.6532-.0731-.169-.01543-.232.07779-.2273.2374.0047.16028.006.32122-.0007.4815-.0074.17973.0731.25886.2508.24679.0604-.00403.1207-.00067.1804-.00067zm.7545.40371c.1783.42182.3527.83559.5271 1.24668-.041.02012-.0584.03487-.0765.03688-.4969.05231-.5231.0389-.7243-.41176-.0898-.20118-.1683-.4084-.2575-.6116-.0751-.16967-.236-.21862-.4895-.1757-.1938.03219-.1603.17637-.163.30245-.0047.2213.004.44327-.004.66458-.0074.21862-.0483.24477-.3165.24008-.2488-.00335-.2817-.02213-.2837-.24276-.0054-.6552-.002-1.30972-.002-1.96491 0-.24143.0006-.48285.0013-.72494 0-.11132.0302-.21058.1623-.20722.4922.00939.9858.00469 1.4747.04895.3742.03353.6398.26355.7075.64312.0724.40372.0235.78731-.3729 1.03343-.0583.03621-.1146.07645-.183.12272z"/><path d="m12.4175 4.3524c0 .10998-.0168.22332.0067.32793.0134.06036.0959.15156.1435.14955.2461-.0114.4976-.02414.7357-.08315.1924-.04695.2702-.21997.2555-.42383-.0141-.19046-.1073-.31989-.2944-.37153-.106-.0295-.2133-.05767-.3219-.06974-.4969-.05767-.5305-.02616-.5251.47077zm1.6953 2.18286c-.2085 0-.3601.01677-.5043-.00737-.0711-.0114-.1536-.08853-.1884-.15693-.1395-.27898-.2616-.56667-.3923-.84967-.0792-.17235-.3823-.2716-.5298-.16095-.0517.0389-.0785.13614-.0812.20856-.0107.24143.0007.48352-.0074.72561-.0067.22198-.0469.24746-.3131.24411-.2488-.00269-.285-.02348-.2864-.24076-.0053-.88722-.0027-1.77378-.002-2.66101 0-.11601.0087-.24142.163-.23874.5023.01073 1.0066.00202 1.5048.05701.4138.0456.6043.37018.68.75109.0597.30043-.0596.77255-.4258.92009-.053.02213-.0952.06907-.1589.11668.173.41176.342.81682.5418 1.29228z"/><path d="m20.3416 4.96269c0 .43322.004.86711-.0007 1.30033-.0033.25215-.0395.27831-.3138.27562-.2562-.00268-.283-.02414-.2884-.27026-.006-.25215.0014-.5043-.0027-.75645-.004-.28636-.0187-.30044-.3151-.30446-.2019-.00269-.4038-.00403-.6049.00067-.2663.00536-.2851.02414-.2891.29976-.004.26222.004.5251-.0033.78664-.0067.2213-.047.24679-.3139.2441-.2481-.00268-.285-.02414-.2857-.24075-.0053-.88723-.0053-1.77445-.0006-2.66168.0013-.22264.0462-.24813.3125-.24545.2481.00336.2803.02415.2877.24076.0073.24142-.0007.48351.0033.7256.004.28703.0188.30044.3152.30446.2012.00336.4031.00403.6049 0 .2662-.00603.2843-.02481.289-.30043.0041-.2421-.004-.48419.0034-.72561.0067-.22198.0469-.24813.3138-.24478.2482.00336.283.02348.2864.2421.0067.44328.002.88655.002 1.32983z"/><path d="m31.5443 4.95673c0-.42383-.0034-.84766.0006-1.27149.0027-.26959.0242-.29105.2958-.29306.5144-.00403 1.0294-.00403 1.5438 0 .2481.00268.2809.04158.2776.28166-.0034.22398-.0302.25617-.2683.2602-.3225.00536-.6458-.00202-.9683.00268-.2609.00469-.2783.03152-.2763.34403.002.2897.0188.31183.2709.31988.161.00537.3226.00537.4842.00201.2079-.00402.2132.13413.2139.28569.0014.14954-.0295.2602-.2126.25684-.1716-.00335-.3427.00537-.5143.00067-.1617-.00402-.2475.05835-.2421.22935.0047.14083.0027.28233.0013.42383-.002.17772.0872.25551.2609.25484.3333-.00134.6659-.00335.9992.00335.2206.00403.2917.08785.2421.30446-.0154.06639-.106.16497-.1636.16632-.5848.01207-1.1703.00737-1.755.00737-.1697 0-.1898-.114-.1898-.24678.0007-.44395 0-.8879 0-1.33185z"/><path d="m9.99089 5.30389c-.11401-.42047-.1918-.792-.39365-1.13066-.112.3836-.32257.72762-.33799 1.13066zm.96101 1.22723c-.1744 0-.3253.02415-.4614-.01006-.0738-.01743-.1583-.12674-.177-.20856-.1368-.60489-.1892-.48754-.67133-.49961-.04024-.00134-.08048 0-.12071 0-.50967-.00067-.44328-.00872-.58948.41847-.114.33329-.171.35744-.65854.26757.01207-.07309.01475-.15021.03822-.2213.28837-.86979.57808-1.73958.87046-2.60803.09456-.27898.10127-.27965.44731-.27898.32592.00067.33061-.00067.41917.26959.283.8604.5626 1.72148.8416 2.58322.0235.07444.0335.1529.0617.28769z"/><path d="m39.719 4.17682-.0973-.00201c-.1086.36414-.2172.72829-.3373 1.12999h.7773c-.1201-.39567-.2314-.76182-.3427-1.12798zm1.2721 2.35722c-.1267 0-.2709.02682-.397-.01006-.0851-.02481-.1743-.12608-.2105-.2146-.2032-.49491-.1979-.49693-.7183-.49693-.0201 0-.0402-.00067-.0603 0-.4366.01208-.4929-.10998-.6244.47748-.0375.169-.1213.27228-.3118.24947-.0972-.0114-.1958-.01341-.3407-.0228.0758-.27763.1328-.52777.2119-.77054.2301-.70884.4728-1.41366.7022-2.12183.055-.17168.1455-.25417.3272-.23472.0798.00939.1617.0047.2421.00201.1261-.00402.214.04762.2542.16967.3152.9563.6304 1.9126.9442 2.8689.0054.01677-.006.03823-.0188.10395z"/><path d="m22.6285 4.16429c-.0262-.00067-.053-.00134-.0792-.00268-.1026.32055-.2079.63909-.3064.96032-.0369.12004.0167.19783.1461.20119.1845.00402.3696.00067.5949.00067-.1294-.42115-.2428-.78999-.3554-1.1595zm1.2983 2.35588c-.1067.0067-.1945.0181-.2824.01743-.2702-.00067-.3071-.03017-.3802-.28702-.0107-.03823-.0141-.07913-.0241-.11736-.0792-.29708-.1047-.31586-.4145-.32055-.0704-.00134-.1415-.00336-.2112 0-.1804.00939-.3943-.03488-.5285.04895-.1153.0731-.1529.28837-.1998.4473-.0523.17839-.161.24277-.3347.23003-.0972-.00738-.1958-.01006-.3239-.01543.0302-.11467.0477-.20051.0751-.28434.279-.86107.564-1.72014.8356-2.58389.0617-.19783.1664-.26959.3695-.26825.4225.00268.4266-.00805.5553.38494.2763.84095.5486 1.68258.8202 2.52487.0208.06438.0268.13346.0436.22332z"/><path d="m27.8755 3.87357c-.3313.26623-.3521.27026-.6861.06773-.2106-.12809-.4252-.16162-.6639-.07846-.1428.05097-.2179.14351-.236.28233-.0188.14754.0556.25819.1891.31184.2977.1187.6022.2213.9006.33933.4084.16028.5868.41243.5928.81815.0067.49425-.2032.80206-.682.9335-.3534.09791-.7155.09322-1.0669-.03956-.2777-.10529-.4661-.30044-.6049-.60021.1562-.0684.2991-.13144.4419-.19381.0208-.01743.0409-.03554.0617-.05297.0476.07578.0852.16094.1442.22734.2313.25617.5318.26288.8362.19514.1677-.03755.2911-.16497.3018-.34.0128-.18844-.1113-.32525-.2749-.39767-.2294-.09993-.4701-.17369-.7049-.26222-.1032-.03956-.1998-.09522-.3031-.13479-.4882-.19113-.5552-.92746-.2132-1.28222.4426-.45803 1.4103-.45535 1.8381.01609.0517.05701.0879.12742.1295.19046z"/><path d="m29.3651 5.23647c0-.2716 0-.54454 0-.81681-.0007-.50363.0342-.48486-.4701-.48419-.0805.00067-.161-.00201-.2421-.00201-.1911 0-.1958-.13278-.1958-.2716-.0007-.14016.008-.26892.1978-.26892.6552.00067 1.311.00067 1.9662.00067.1912 0 .1965.13078.1965.27026.0007.14016-.008.27026-.1978.26959-.0912-.00067-.1817.00201-.2723.00268-.3742.00202-.3762.00202-.3769.36415-.0013.56466-.0006 1.12932-.0006 1.69465 0 .06974.0006.14083 0 .21125-.0041.31519-.0376.34603-.3487.33195-.2274-.01006-.2515-.03018-.2549-.27361-.0047-.34269-.0013-.6847-.0013-1.02806z"/><path d="m15.6209 5.23776c0-.3219.0013-.64514-.0007-.96703-.0026-.32391-.012-.33196-.3473-.33464-.1208-.00134-.2415-.00269-.3628-.00269-.1898.00068-.1972-.1301-.1972-.27025 0-.13949.006-.26959.1965-.26959h1.9662c.1905-.00067.1985.12876.1979.26891 0 .13949-.0061.27161-.1965.27093-.0711 0-.1415.00202-.2119.00202-.5432.00067-.499-.03286-.4997.51503-.0006.60557.0027 1.21047-.002 1.81469-.0013.24277-.0328.26825-.2548.27294-.2407.00537-.2823-.02883-.2864-.2716-.0046-.34335-.0013-.68537-.0013-1.02872z"/><path d="m45.7713 5.23776c0-.31318.0007-.62569 0-.93753-.002-.36146-.0034-.36213-.3782-.36414-.1107-.00067-.222-.00269-.3327-.00269-.1904.00068-.1971-.13077-.1971-.27025 0-.14016.0067-.27026.1971-.26959h1.9663c.1904-.00067.1978.12943.1972.26959 0 .13948-.0068.27093-.1972.27025-.0905 0-.1811.00202-.2723.00269-.4379.00067-.4379.00067-.4386.4245 0 .63507.0027 1.27015-.0013 1.90522-.002.24344-.0456.27093-.2864.27429-.1743.00268-.2615-.05768-.2581-.24411.0067-.35274.002-.70549.002-1.05823z"/></g></svg>