<svg fill="none" height="20" viewBox="0 0 117 20" width="117" xmlns="http://www.w3.org/2000/svg"><g clip-rule="evenodd" fill="#122842" fill-rule="evenodd"><path d="m17.2127 19.6229v-12.97574l-4.9411 12.97574h-2.2371l-4.97268-12.97574v12.97574h-5.06182v-19.6229h7.03344l4.11956 10.8278 4.0881-10.8278h7.0335v19.6229z"/><path d="m32.3323 15.9739v-1.2635c-.4708-.676-1.529-1.0019-2.5309-1.0019-1.1749 0-2.2654.5312-2.2654 1.6497 0 1.1186 1.0905 1.6457 2.2654 1.6457 1.0019 0 2.0601-.35 2.5309-1.03zm0 3.6488v-1.4116c-.8812 1.0582-2.5913 1.7664-4.414 1.7664-2.1768 0-4.8841-1.5015-4.8841-4.6796 0-3.4403 2.7073-4.5911 4.8841-4.5911 1.8831 0 3.561.6197 4.414 1.6779v-1.4123c0-1.23527-1.0582-2.08762-2.885-2.08762-1.4123 0-2.8246.55929-3.9714 1.52832l-1.6779-3.14585c1.8274-1.56187 4.2692-2.20499 6.446-2.20499 3.4121 0 6.619 1.26277 6.619 5.67674v8.8837z"/><path d="m37.1855 17.7695 1.8831-3.2343c1.0583.9415 3.3236 1.9105 5.0015 1.9105 1.3513 0 1.9106-.3815 1.9106-1.0019 0-1.7623-8.264.0611-8.264-5.7049 0-2.50275 2.1768-4.67957 6.0878-4.67957 2.4136 0 4.4134.76517 5.9424 1.88309l-1.7342 3.20688c-.8531-.82485-2.4706-1.55716-4.1766-1.55716-1.0623 0-1.7658.41042-1.7658.96971 0 1.55715 8.2359-.06035 8.2359 5.76535 0 2.7079-2.382 4.6473-6.442 4.6473-2.5584 0-5.1778-.8523-6.6787-2.205z"/><path d="m60.5133 19.6229v-8.268c0-1.73422-.9134-2.29351-2.3539-2.29351-1.3238 0-2.205.73633-2.7361 1.38351v9.178h-4.5307v-19.6229h4.5307v7.15012c.853-1.0019 2.5309-2.0883 4.9129-2.0883 3.2351 0 4.7078 1.82274 4.7078 4.44217v10.11891z"/><path d="m74.9873 15.9739v-1.2635c-.4708-.676-1.529-1.0019-2.531-1.0019-1.1749 0-2.2653.5312-2.2653 1.6497 0 1.1186 1.0904 1.6457 2.2653 1.6457 1.002 0 2.0602-.35 2.531-1.03zm0 3.6488v-1.4116c-.8812 1.0582-2.5913 1.7664-4.414 1.7664-2.1769 0-4.8848-1.5015-4.8848-4.6796 0-3.4403 2.7079-4.5911 4.8848-4.5911 1.8831 0 3.5609.6197 4.414 1.6779v-1.4123c0-1.23527-1.0583-2.08762-2.885-2.08762-1.4124 0-2.8247.55929-3.9714 1.52832l-1.6779-3.14585c1.8267-1.56187 4.2691-2.20499 6.446-2.20499 3.4121 0 6.6183 1.26277 6.6183 5.67674v8.8837z"/><path d="m88.3132 15.9737c1.7945 0 3.1465-1.3238 3.1465-3.4684 0-2.1205-1.352-3.44428-3.1465-3.44428-.9697 0-2.1487.53113-2.708 1.29568v4.3536c.5593.7645 1.7383 1.2634 2.708 1.2634zm-7.238 3.6489v-19.62229482h4.53v7.08977482c1.1186-1.413 2.6476-2.02795 4.2088-2.02795 3.5603 0 6.2649 2.79245 6.2649 7.44317 0 4.8238-2.7643 7.472-6.2649 7.472-1.5893 0-3.0298-.6478-4.2088-1.9997v1.645z"/><path d="m96.7256 19.6239h4.5304v-19.62292344h-4.5304z"/><path d="m109.434 8.70901c-1.972 0-2.736 1.17492-2.913 2.20499h5.854c-.117-1.0019-.853-2.20499-2.941-2.20499zm-7.533 3.79439c0-4.12031 3.091-7.44322 7.533-7.44322 4.208 0 7.266 3.08954 7.266 7.91392v1.0301h-10.119c.322 1.2628 1.501 2.325 3.557 2.325 1.001 0 2.651-.4419 3.472-1.2071l1.971 2.9695c-1.411 1.2682-3.765 1.8838-5.942 1.8838-4.382 0-7.738-2.8528-7.738-7.472z"/></g></svg>