<svg fill="none" height="17" viewBox="0 0 124 17" width="124" xmlns="http://www.w3.org/2000/svg"><g clip-rule="evenodd" fill="#122842" fill-rule="evenodd"><path d="m8.46387 4.29755v11.52455h-4.21014v-11.52455h-4.25373v-3.668278h12.7183v3.668278z"/><path d="m17.382 7.07561c-.8906 0-1.3889.60691-1.5197 1.73556h3.2559c-.1958-1.15011-.5868-1.73556-1.7362-1.73556zm5.1644 4.16719h-6.6841c.1308 1.2588.8678 1.8228 1.9314 1.8228.9986 0 1.8234-.218 2.9521-.8034l1.4968 2.496c-1.4096.8249-2.8649 1.3017-4.644 1.3017-3.4296 0-5.3174-2.4317-5.3174-5.9249 0-3.92784 2.2131-5.9464 5.2087-5.9464 3.1251 0 5.0786 2.06215 5.0786 6.2931 0 .3266 0 .5653-.0221.7611z"/><path d="m29.8153 16.0602c-3.341 0-5.3387-2.1265-5.3387-5.9678 0-3.49458 1.7798-5.90344 5.4259-5.90344 2.1487 0 3.3866.99788 4.3845 2.60401l-2.6918 2.04002c-.5419-.99855-.9121-1.47603-1.7577-1.47603-.9986 0-1.4975.99922-1.4975 2.79984 0 1.8026.5418 2.7341 1.6054 2.7341.7377 0 1.2588-.4118 1.9757-1.4754l2.4739 1.9314c-1.3238 1.9535-2.5611 2.7133-4.5797 2.7133z"/><path d="m43.138 15.8219v-6.46813c0-1.47602-.499-1.86632-1.3017-1.86632-.8255 0-1.3245.3903-1.3245 1.82274v6.51171h-3.9063v-14.25936l3.9063-1.56254v5.18723c.7156-.5432 1.5196-.99855 2.8642-.99855 2.4967 0 3.6904 1.67118 3.6904 4.66616v6.96706z"/><path d="m56.4186 16.0603c-4.5146 0-6.9235-3.3424-6.9235-7.83485 0-4.88344 2.8642-7.834825 6.9443-7.834825 3.734 0 5.21 1.605455 6.2515 4.471005l-3.8199 1.49749c-.5432-1.41031-1.0636-2.30022-2.4524-2.30022-1.7577 0-2.5175 1.75769-2.5175 4.16655 0 2.32235.7377 4.16655 2.5604 4.16655 1.3238 0 1.8885-.7156 2.7126-2.148l3.5604 1.8878c-1.0207 1.9971-2.714 3.9285-6.3159 3.9285z"/><path d="m72.3434 8.72466c-.4989-.5432-1.0629-.95496-1.8221-.95496-.9563 0-1.5417.45602-1.5417 1.84487v6.20723h-3.9064v-11.39446h3.9064v.82419c.6726-.6505 1.4324-1.06293 2.431-1.06293.8248 0 1.3895.19448 1.8448.47748z"/><path d="m81.6308 15.822v-.7605c-.6947.5425-1.5196.9985-2.8427.9985-2.4961 0-3.6904-1.6705-3.6904-4.6668v-6.96571h3.9284v6.46811c0 1.4754.499 1.8657 1.3024 1.8657s1.3023-.3903 1.3023-1.8235v-6.51031h3.9285v11.39451z"/><path d="m94.9104 15.8219v-6.46808c0-1.47603-.4989-1.86633-1.3017-1.86633-.8255 0-1.3244.3903-1.3244 1.82274v6.51167h-3.9064v-11.39444h3.9064v.75981c.7155-.5432 1.5196-.99855 2.8642-.99855 2.4967 0 3.6904 1.67118 3.6904 4.66616v6.96702z"/><path d="m106.453 16.0602c-3.342 0-5.339-2.1265-5.339-5.9678 0-3.49458 1.779-5.90344 5.426-5.90344 2.148 0 3.386.99788 4.384 2.60401l-2.691 2.04002c-.543-.99855-.912-1.47603-1.758-1.47603-.999 0-1.498.99922-1.498 2.79984 0 1.8026.542 2.7341 1.606 2.7341.738 0 1.259-.4118 1.975-1.4754l2.474 1.9314c-1.324 1.9535-2.56 2.7133-4.579 2.7133z"/><path d="m119.776 15.8219v-6.46813c0-1.47602-.499-1.86632-1.302-1.86632-.826 0-1.324.3903-1.324 1.82274v6.51171h-3.907v-14.25936l3.907-1.56254v5.18723c.716-.5432 1.519-.99855 2.864-.99855 2.496 0 3.69 1.67118 3.69 4.66616v6.96706z"/></g></svg>