<svg fill="none" height="24" viewBox="0 0 76 24" width="76" xmlns="http://www.w3.org/2000/svg"><g clip-rule="evenodd" fill="#122842" fill-rule="evenodd"><path d="m8.09167 1.60797-2.21438-.01141-3.43021-.00201c-.23739 0-2.07757.0161-2.07757.0161l-.034201 2.75422-.335309.01006.0207891-3.09691-.0107298-1.27216062c1.1688907.05297882 5.3937807.08986272 9.7769307.09254522 5.11141.0033534 8.40551-.0415783 9.69711-.0764504l-.0154 1.4082958.0248 3.13246-.348-.0047c.0026-.25483-.0557-1.29429-.0523-1.39622.0006-.03756-.0725-1.43244-.0825-1.53773l-1.468-.02012-4.3979-.00335-1.6853.00536-.0074 19.31915c0 .0275.0302 1.2675.0369 1.5243.1683.0222 1.7986.1281 2.0937.1288l.1147-.0007v.5251c-.0879 0-.1972.0087-.2884.0081-.9248-.0101-2.4203-.1134-3.48252-.1141-1.04482-.0006-2.51951.0939-3.60926.1087-.02884.0007-.25282-.0047-.33598-.0087l-.00201-.5613c.01073.0013.07712-.0007.18039-.0041.46072-.0167 1.59406-.0865 1.88913-.1093l.04695-.006-.00067-1.6538z"/><path d="m36.2529 0s1.6497 4.75535 1.9173 5.45078c.2689.6961 5.3106 12.72632 5.3106 12.72632s2.3733-5.1799 4.4878-10.73995c.4285-1.1253.9898-2.59261 1.4029-3.78161.6076-1.73959 1.2735-3.64682197 1.2735-3.64682197l1.299.00067062s.3212 2.12452135.4346 3.07076135c.3306 2.75221 2.496 13.94015 3.2558 17.62045.1898.9201.334 1.7175.334 1.7175.2226.0141 1.1011.0959 1.6222.1368.108.0087.4004.0228.4681.0235l.0007.5539s-.2354.0114-.3655.0114c-1.1649-.0074-2.9789-.1053-4.0988-.106-.9945 0-1.9529.0778-2.9487.0966-.169.0034-.3394-.004-.513-.004v-.5479c.006-.0014.1388-.0087.2085-.0061.4869-.0207 1.7758-.1374 1.9039-.1435.0007-.2005-.0691-.8973-.1737-1.6095-.0731-.5029-.1958-1.3613-.3259-2.2076-.2817-1.645-1.5921-8.4646-1.981-10.35771-.0631-.3105-.1026-.48419-.1026-.48419s-4.0713 9.6549-4.8922 11.5568c-.0798.1871-.1375.3192-.1562.3621-.7853 1.8321-1.4439 3.4651-1.4439 3.4651l-1.1554-.0061-6.328-15.08283-.1495-.35073s-.5546 2.82666-1.3547 6.81486c-.4225 2.1547-1.2996 7.5424-1.3593 7.8985.5049.0691 1.4961.1448 1.767.1361.0624 0 .1677.0027.2468.0027l-.0006.5459c-.1134.0141-.3783.0154-.3883.0154-.9563-.0188-1.6457-.0878-2.6778-.0878-.2709 0-1.7054.0684-2.211.0845-.2113.0087-.5084-.0134-.5654-.0114l.0007-.5399c.049 0 .1496-.0194.2126-.0214.458-.0182 1.1615-.0832 1.7584-.155.0482-.2655.5653-2.9218.7303-3.862.6344-3.1144 2.5067-13.51903 2.7421-14.92062.2059-1.51559.4453-3.400029.4661-3.6079207.4949.0080474 1.3486-.0100593 1.3486-.0100593z"/><path d="m27.8274 23.1318c-.8584 0-2.3163-.1334-3.4094-.1341-1.0797-.0007-2.547.1301-3.6019.1294-.0899.0014-.2481-.0174-.3347-.0174l.0007-.5486c.2072-.004 1.1394-.0825 1.4003-.0999.3038-.0201.5847-.0349.7095-.0718 0 0 .0027-.6612.0074-1.6866.0134-3.5449.0415-13.56455.0087-18.09793-.0034-.47815-.0061-1.689953-.0061-1.865655-.1978-.019448-.4741-.04359-.6719-.067732-.2481-.012742-1.2682-.103275-1.4412-.111993l-.006-.5492361c1.0113.0006706 2.5128.0965691 3.7306.0972391 1.1656.000671 2.7449-.0932154 3.9399-.0925448l-.0027.5720368c-.1898.01073-.6505.037555-.6666.038896-.348.030848-1.3231.133453-1.5625.148206-.0007.342013-.0013.979103-.0027 1.763723-.0027 4.05992-.0121 14.68049-.0154 18.25689-.0007.4674-.0007.8986-.0014 1.1582 0 .2736.0014.4379.0047.4486.0067.0195.6177.0731.7585.0818.2689.0282 1.3788.0751 1.4137.0818h.0737l-.0013.5493c-.0731-.0007-.2495.0181-.3239.0174z"/><path d="m64.2202 1.69157-.0107 9.09093 6.3052.0234c.0288 0 1.6685-.0462 1.708-.0462.0999.0013 1.2252-.0584 1.2682-.0725 0 0 .0187-.0959.0436-.1643.0918-.54987.2072-1.07228.2374-1.48069 0 0 .0288-.17436.0315-.29306l.3581-.00603c.0007.04157.0194.14686.0174.29507-.0053.54722-.0489 1.68661-.0476 2.43101.0013 1.075.0329 2.044.0389 2.5302.0054.1382-.0047.3595-.0047.3595h-.3936c-.0061-.0517-.0128-.1053-.0215-.161-.0698-.619-.1261-1.0569-.2294-1.6879-.0033-.0322-.0248-.1462-.0321-.2186-.2012-.0128-.7317-.0296-1.014-.0376-.1234-.004-1.6598-.0148-3.3887-.0174-.7095-.002-1.981.0288-2.5215.0275-.6317-.0014-1.6758.0342-2.3572.0583l.0013 8.2439.0269 1.0623 3.8272.063 5.4508-.002c.0248 0 1.248-.0443 1.6302-.0369.0798.002.2435-.0121.2435-.0121.0362-.2655.0811-.8054.126-1.3211.0054-.0597.1409-1.4277.1409-1.7946l.3366-.0033c0 .3474-.0744 4.6668-.0744 4.6668-.6143-.0006-2.4994-.004-4.8298-.0369-1.4103-.0194-2.9836-.0208-4.5367-.0422-1.2588-.0181-2.5034-.0604-3.6375-.059-1.6141.0006-3.1961.0979-3.8097.0986-.1409 0-.389-.0101-.4426-.0101v-.5432h.1126c.3789-.0013 1.4935-.0624 2.0742-.1616 0-.1087.0389-1.4533.0389-1.4807 0 0 .0067-17.06995.0074-17.8358.0007-.82553-.0147-2.199622-.0141-2.321003-.3292-.036884-.4459-.056332-.515-.069074-.3494-.046273-1.0368-.101934-1.405-.126747-.1046.002683-.2192-.010059-.2749-.019448 0 0-.0007-.5338114-.004-.5418588.0831.0053649.2555-.0060356.5646-.0046943.6492.0026824 1.8436.0925451 3.3062.0952281.9181.001341 2.4001-.0395669 3.461-.051638 1.5123.0006706 2.6604-.0114005 4.1263-.0201185 2.3921-.0127417 4.4348-.0274953 5.2335-.0301778.2334-.0006706.3608-.0020119.3608-.0020119 0 .0415783-.002.0912042-.002.1461942 0 .171008-.0074.472115-.0047.841629.0067 1.15011.0362 2.95742.0362 3.54756l-.3359.00135-.0034-.16229c-.0335-.40304-.1066-1.54108-.1978-2.4994-.0094-.08516-.0242-.1529-.0242-.1529-.2005-.0067-1.018-.03085-1.0327-.04292-.0134-.0114-.6646-.02079-.6787-.02682-.006-.00268-2.1466-.01677-4.3509-.01945-1.5063-.00268-2.9856.00604-3.895.00537-.2226-.00067-1.0234.02749-1.0234.02749z"/></g></svg>