<svg fill="none" height="27" viewBox="0 0 85 27" width="85" xmlns="http://www.w3.org/2000/svg"><g clip-rule="evenodd" fill="#122842" fill-rule="evenodd"><path d="m72.0264 6.54791h5.8109v5.74519h1.0629v-5.74519h5.8364v-.96368h-5.8364v-5.58423h-1.0629v5.58423h-5.8109z"/><path d="m51.39 26.7025c-3.3363 0-5.5775-1.9341-5.5775-4.8124v-7.7845h2.9474v7.7845c0 1.6591 1.4163 2.2479 2.6301 2.2479 1.6451 0 2.6671-.8604 2.6671-2.2479v-7.7845h2.9473v7.7845c0 2.9239-2.2036 4.8124-5.6144 4.8124z"/><path d="m38.2577 26.7024c-2.5034 0-4.6789-.7812-6.6499-2.3894l-.1254-.1019 1.6813-2.034.1234.0986c1.1474.918 2.7528 1.9716 5.0075 1.9716 1.1796 0 2.557-.4031 2.557-1.5364 0-.9717-1.0059-1.2386-2.8622-1.3902-2.3163-.1455-5.8203-.3661-5.8203-3.6441 0-2.9025 2.6268-3.9359 5.0853-3.9359 2.4243 0 4.5803.8792 5.6902 1.633l.1455.0986-1.704 2.0782-.1234-.0912c-.3923-.2924-1.8482-1.2453-4.0814-1.2453-1.0066 0-2.0829.3413-2.0829 1.2989 0 .8591 1.3345.9664 2.7482 1.0797l.224.0188c2.1339.1435 5.7103.3836 5.7103 3.8447 0 2.6979-2.0132 4.2463-5.5232 4.2463z"/><path d="m84.4506 26.3377h-10.6635v-12.2321h10.2444v2.5825h-7.3151v1.9958h4.3959v2.5644h-4.3959v2.5249h7.7342z"/><path d="m26.5195 26.3378h2.9293v-12.2321h-2.9293z"/><path d="m24.0229 26.3375h-10.6635v-12.232h10.2443v2.5825h-7.3144v1.9958h4.3952v2.5644h-4.3952v2.5249h7.7336z"/><path d="m11.6536 26.3377h-9.93387v-12.2321h2.92993v9.6676h7.00394z"/><path d="m68.9573 21.4522c1.4908-.7108 2.3405-1.9515 2.3405-3.4282 0-.957-.3648-1.8703-1.0287-2.5738-.8645-.9047-2.0716-1.3446-3.6918-1.3446h-6.7638v12.2321h2.9292v-4.3772h3.284l2.4076 4.3772h3.3651zm-2.1064-2.0206h-4.1082v-2.7985h3.9258c.4587 0 .9335.0557 1.3091.4648.2441.2434.3728.564.3728.9261 0 .8027-.6444 1.4076-1.4995 1.4076z"/><path d="m74.4894 12.2345h-9.9191v-12.2132598h2.9259v9.6521998h6.9932z"/><path d="m62.5634 12.2345h-10.6474v-12.2132598h10.2283v2.5791998h-7.3031v1.99173h4.3892v2.56109h-4.3892v2.52018h7.7222z"/><path d="m45.0925 12.2345h-2.4632l-5.6674-12.2132598h3.3075l3.6461 8.5128198 3.6455-8.5128198h3.1982z"/><path d="m7.24133 12.2349h-2.92523v-9.6341h-4.3161v-2.5791936h11.5393v2.5791936h-4.29797z"/><path d="m33.8048.0212402h-2.445l-5.6674 12.2132598h3.1076l1.0744-2.51345h5.2884l1.0932 2.51345h3.2162zm-2.9004 7.3211298 1.6142-3.76686 1.6142 3.76686z"/><path d="m22.1151 7.3567c1.4881-.71018 2.3371-1.94814 2.3371-3.42283 0-.95563-.3648-1.86834-1.028-2.57048-.8618-.903322-2.0675-1.3419056-3.6857-1.3419056h-6.7531v12.2126156h2.9252v-4.37041h3.278l2.4041 4.37041h3.3605zm-2.103-2.01789h-4.1015v-2.79312h3.9191c.4573 0 .9315.05499 1.307.4634.2434.24276.3722.56264.3722.92478 0 .80072-.6438 1.40494-1.4968 1.40494z"/></g></svg>