<svg fill="none" height="25" viewBox="0 0 49 25" width="49" xmlns="http://www.w3.org/2000/svg"><g clip-rule="evenodd" fill="#122842" fill-rule="evenodd"><path d="m12.2788 8.00761c-.1368.51034-.2615.96166-.3788 1.41433-.9369 3.60056-1.8717 7.20176-2.80793 10.80236-.31317 1.2057-.623 2.4115-.9449 3.6146-.03621.1375-.00134.34-.26891.3433-.283.0034-.24813-.2119-.28435-.3567-.6733-2.6342-1.33788-5.2704-2.00715-7.9059-1.13938-4.4925-2.29352-8.98163-3.4101-13.48013-.25751-1.03745-.77791-1.71544-1.876384-1.847552-.2575167-.030848-.3554269-.149548-.2702584-.422489h7.0059424v.33665c-.19917.050296-.41578.100593-.63105.157595-.99989.262882-1.2849.694086-1.04952 1.712086.2877 1.24735.61161 2.48665.93551 3.72461.91674 3.50666 1.84152 7.01133 2.76362 10.51733.02481.0905.05432.1784.13345.2743.10462-.395.21125-.79.31452-1.1857.78731-3.0091 1.57461-6.01812 2.35861-9.02786.0234-.08986.0409-.1938.0174-.28098-.393-1.50889-.7913-3.01711-1.1924-4.52399-.0402-.15156-.1046-.29641-.1582-.44328-.1965-.53247-.58481-.807423-1.14344-.859061-.12071-.01073-.23874-.039567-.36749-.062368v-.340673h7.01663v.338662c-.2588.050967-.5284.10931-.8.155583-.9154.155583-1.2085.755787-1.0462 1.612837.1851.97441.4306 1.93943.676 2.90109.9503 3.74071 1.9113 7.47944 2.8682 11.21874.0409.1596.0839.3186.1422.5412.0496-.1428.0872-.2313.1107-.3239 1.1226-4.3805 2.2472-8.76027 3.3584-13.14477.108-.42719.159-.87717.1737-1.31844.0262-.76584-.3541-1.231252-1.0944-1.417013-.3112-.077791-.6251-.144183-.9402-.21728v-.349392h5.094c.0811.242764.0322.384935-.2441.421819-1.0791.142171-1.6444.838946-1.9147 1.825416-.342 1.25138-.6773 2.5061-.9978 3.76351-.9456 3.70584-1.8825 7.41435-2.8233 11.12215-.564 2.2211-1.1334 4.4415-1.6907 6.664-.0395.1582-.0925.2159-.2575.2166-.169.0013-.1951-.0939-.2287-.222-1.0501-4.0659-2.1017-8.1326-3.1532-12.1979-.2998-1.1554-.5975-2.3109-.8973-3.46571-.0194-.07578-.0469-.14888-.0899-.28568z"/><path d="m34.2743.15621h.3574v7.90524c-.3903.07243-.3823.06975-.4332-.25148-.2448-1.54041-.6083-3.04595-1.3218-4.44552-.4547-.89193-1.024-1.69264-1.8871-2.24255-1.0153-.646476-2.4753-.625016-3.392.05432-.5747.4245-.8504 1.0294-.9744 1.71075-.2723 1.49681.2461 2.76629 1.1501 3.91908.7605.96905 1.6725 1.78988 2.5846 2.60938 1.2513 1.12327 2.5268 2.22247 3.575 3.55087.8946 1.1334 1.5813 2.3734 1.8127 3.8139.3413 2.1258-.002 4.0961-1.4801 5.7559-.8067.906-1.8401 1.4317-3.0258 1.653-1.6222.3025-3.1438.049-4.5495-.8443-.3359-.2126-.6766-.4741-1.1065-.407-.1884.0288-.4178.1227-.5278.2655-.1763.2287-.2923.5144-.3889.7914-.0657.1864-.1858.2078-.3186.1669-.0603-.0187-.1193-.1508-.1193-.232-.0067-2.4893-.0007-4.9787-.0114-7.4687-.0014-.3219.1871-.2394.397-.2374.055.3575.1033.7163.1663 1.0737.2991 1.6906.8577 3.276 1.9428 4.6353.6297.7873 1.3882 1.417 2.384 1.6786 1.8436.4828 3.5-.5023 4.0358-2.3935.5291-1.865.1039-3.5348-1.0522-5.0571-.9288-1.2212-2.0615-2.2405-3.1868-3.2686-1.1957-1.0931-2.4142-2.1641-3.394-3.46842-.6679-.88991-1.195-1.84823-1.3808-2.96212-.3286-1.96692.2985-4.4576 2.2513-5.663368 1.1152-.688054 2.3358-.8785096 3.6247-.7691989.8845.0744389 1.6718.3949939 2.4243.8449779.2588.154909.5465.272269.8349.360789.3319.10261.6042-.03956.7618-.352071.0583-.116017.0972-.242093.1395-.366157.0389-.114005.0697-.232034.108-.360122z"/><path d="m41.578.509916v-.348051h7.3633c.0819.339333.0818.337321-.2421.416454-.2206.052979-.4419.103275-.6578.170337-.6371.199173-.9543.592824-1.0046 1.258074-.0275.36683-.0463.735-.0463 1.10183-.0027 5.15571-.0027 10.31004-.0013 15.46574 0 1.1434-.1912 2.2453-.7478 3.2579-.7933 1.4425-2.0507 2.1976-3.6589 2.4122-1.1165.1489-2.205.0671-3.2109-.4815-1.3412-.7316-2.1104-1.8703-2.3337-3.3826-.1093-.7397-.0416-1.4478.3192-2.1118.4775-.8785 1.4398-1.3251 2.3083-1.089.8456.2293 1.2225.8657 1.2064 1.6819-.0127.68-.3031 1.2292-.8732 1.6188-.2675.1831-.5418.3575-.794.5587-.4345.348-.5331.7564-.2897 1.258.3803.782 1.0616 1.1595 1.8804 1.3151.6204.1187 1.2246.049 1.7691-.289.6324-.3937.9282-1.0247 1.0408-1.7201.1114-.6874.1791-1.3896.1804-2.085.0141-5.5762.0094-11.15237.0054-16.72855 0-.28636-.0282-.57539-.0651-.86108-.0865-.67129-.4855-1.058903-1.136-1.201074-.338-.073768-.6766-.145524-1.0119-.21728z"/></g></svg>